<svg xmlns="http://www.w3.org/2000/svg" width="2508.7" height="2009.2" enable-background="new 0 0 2508.7 2009.2" viewBox="0 0 2508.7 2009.2" id="businessman-sends-marketing-mails">
  <g>
    <g>
      <polygon fill="#FFF" points="1650 233.4 1716.9 176.9 1670.3 160.4"></polygon>
    </g>
    <g>
      <polygon fill="#FFDF6E" points="2489.1 741.8 2489.1 601.1 2416 659.6"></polygon>
    </g>
    <g>
      <polygon fill="#FFDF6E" points="2456.9 590.9 2456.9 602.7 2471.6 590.9"></polygon>
    </g>
    <g>
      <path fill="#FFF" d="M2438,617.8c0-0.2,0-0.4,0-0.5V480.8h-181.8v132.5l91.1,77.1L2438,617.8z M2294.2,512.6h107
			c5.2,0,9.5,4.2,9.5,9.5s-4.2,9.5-9.5,9.5h-107c-5.2,0-9.5-4.2-9.5-9.5S2289,512.6,2294.2,512.6z M2284.8,563.7
			c0-5.2,4.2-9.5,9.5-9.5h83.1c5.2,0,9.5,4.2,9.5,9.5s-4.2,9.5-9.5,9.5h-83.1C2289,573.2,2284.8,568.9,2284.8,563.7z"></path>
    </g>
    <g>
      <path fill="#FFDF6E" d="M2241.9,626.1c-1-0.6-1.9-1.3-2.6-2.2l-26.1-22.1V740l66.5-81.9L2241.9,626.1z"></path>
    </g>
    <g>
      <path fill="#FFDF6E" d="M2352.9,710c-1.7,1.4-3.8,2.1-5.9,2.1c-2.2,0-4.4-0.7-6.1-2.2l-46.7-39.6l-70.6,86.9h253.9l-76.3-85.8
			L2352.9,710z"></path>
    </g>
    <g>
      <polygon fill="#FFDF6E" points="2237.2 590.9 2229.6 590.9 2237.2 597.3"></polygon>
    </g>
    <g>
      <path fill="#FFA241" d="M2482.5,1154.7h-508.8c-0.9,2.3-1.7,4.7-2.6,7.1c-9.6,27.2-28,46.4-51.9,54c-6.2,2-12.3,3-18.2,3
			c-10.5,0-20.1-3.1-27.8-9.1c-4.6-3.6-8.3-8.1-10.9-13.3c-8.4,12.5-20.7,24.5-37.4,26.9c-2.6,0.4-5,0.5-7.3,0.5
			c-13,0-21.4-5.3-26.4-10.2c-4-4-7.2-9-9.5-14.8c-9.3,8.5-21.4,14.9-34.7,14.9c-0.3,0-0.7,0-1,0c-17.3-0.4-28.5-11.7-35.2-22
			c-16.1,13.7-30.9,15.5-35.6,15.7c-0.6,0-1.2,0-1.8,0c-10.7,0-20.7-4.2-29.1-12.2c-10.8-10.3-16.4-24.4-17.1-40.4H1212
			c-4,0-7.3,3.3-7.3,7.3v73.9h1283.9c0.4,0,0.8,0,1.2,0.1v-74C2489.8,1158,2486.5,1154.7,2482.5,1154.7z"></path>
    </g>
    <g>
      <polygon fill="#FFDF6E" points="1692 1380.9 1692 1538.6 1774.5 1455.6"></polygon>
    </g>
    <g>
      <path fill="#FFD6D3" d="M1674.4,1188.4c10.2-0.4,20.8-7.6,28.4-15.1c-4.1-17-1.8-40.1,6.8-65.2c7.1-20.9,17.5-39.7,29.2-53.5
			c-3.8-1.2-9-2.2-15.5-2c-10.7,0.4-26.6,4.2-41.3,20.5c-35.8,39.8-46.7,87.4-24.7,108.3C1662.6,1186.4,1668.1,1188.6,1674.4,1188.4
			z"></path>
    </g>
    <g>
      <path fill="#FFD6D3" d="M1723.2,1174.8c6,12.9,13.8,19.6,23.3,19.9c0.2,0,0.3,0,0.5,0c10.9,0,23.8-8.7,30.7-20.7
			c0.1-2.2,0.2-4.5,0.5-6.7c0.1-0.9,9.6-71.6,41.7-112.6c-23.8-13.9-46.3-5.6-55.6,1.5C1734.4,1078.7,1710.5,1147.5,1723.2,1174.8z"></path>
    </g>
    <g>
      <polygon fill="#FFDF6E" points="1978.3 1369 1707.1 1369 1838.9 1488.5"></polygon>
    </g>
    <g>
      <path fill="#FFF" d="M1204.7,1254.8V1983c0,4,3.3,7.3,7.3,7.3h1270.4c4,0,7.3-3.3,7.3-7.3v-728.2c-0.4,0-0.8,0.1-1.2,0.1
			H1204.7z M2013.4,1561.5c0,0.5-0.1,1-0.1,1.5c0,0.1,0,0.1,0,0.2c-0.1,0.5-0.2,1.1-0.4,1.6c0,0.1,0,0.1-0.1,0.2
			c-0.2,0.5-0.4,1-0.7,1.5c0,0.1-0.1,0.1-0.1,0.2c-0.3,0.5-0.7,0.9-1.1,1.4c0,0,0,0.1-0.1,0.1c0,0,0,0,0,0c-0.4,0.4-0.9,0.8-1.4,1.2
			c0,0,0,0-0.1,0c-0.5,0.3-1.1,0.6-1.6,0.9c0,0,0,0,0,0c-0.6,0.2-1.1,0.4-1.8,0.5c0,0,0,0,0,0c-0.6,0.1-1.2,0.2-1.8,0.2h-321.4
			c-0.6,0-1.2-0.1-1.7-0.2c0,0-0.1,0-0.1,0c-0.6-0.1-1.1-0.3-1.6-0.5c0,0-0.1,0-0.1-0.1c-0.5-0.2-1-0.5-1.5-0.8c0,0-0.1-0.1-0.1-0.1
			c-0.5-0.3-1-0.7-1.4-1.2c0,0,0,0,0,0c0,0,0,0,0,0c-0.4-0.4-0.8-0.9-1.2-1.4c0,0,0-0.1-0.1-0.1c-0.3-0.5-0.6-1-0.8-1.5
			c0,0,0-0.1,0-0.1c-0.2-0.5-0.4-1.1-0.5-1.7c0,0,0,0,0-0.1c-0.1-0.6-0.2-1.1-0.2-1.7c0,0,0,0,0,0c0,0,0,0,0,0v-201.9
			c0-0.4,0-0.8,0.1-1.2c0-0.1,0-0.2,0-0.2c0.1-0.5,0.2-1.1,0.4-1.6c0-0.1,0.1-0.1,0.1-0.2c0.2-0.5,0.4-1,0.7-1.5
			c0-0.1,0.1-0.1,0.1-0.2c0.3-0.5,0.6-0.9,1-1.3c0,0,0-0.1,0.1-0.1c0,0,0.1-0.1,0.1-0.1c0.4-0.4,0.8-0.8,1.2-1.1
			c0.1-0.1,0.1-0.1,0.2-0.1c0.4-0.3,0.9-0.6,1.4-0.8c0.1,0,0.1-0.1,0.2-0.1c0.5-0.2,1-0.4,1.5-0.5c0.1,0,0.1,0,0.2-0.1
			c0.5-0.1,1-0.2,1.6-0.2c0.1,0,0.2,0,0.3,0c0.1,0,0.2,0,0.3,0h321.4c0.2,0,0.4,0,0.6,0c0.1,0,0.1,0,0.2,0c0.6,0,1.1,0.1,1.6,0.3
			c0.1,0,0.1,0,0.2,0c0.5,0.2,1,0.3,1.5,0.6c0.1,0,0.1,0.1,0.2,0.1c0.5,0.3,0.9,0.5,1.4,0.9c0.1,0,0.1,0.1,0.2,0.1
			c0.5,0.4,0.9,0.8,1.3,1.2c0,0,0,0,0.1,0.1c0,0,0,0,0,0c0.4,0.5,0.7,1,1,1.5c0,0,0,0.1,0,0.1c0.3,0.5,0.5,1.1,0.7,1.6
			c0,0,0,0,0,0.1c0.2,0.5,0.3,1.1,0.4,1.7c0,0,0,0.1,0,0.1c0,0.3,0.1,0.7,0.1,1V1561.5z"></path>
    </g>
    <g>
      <path fill="#FFDF6E" d="M1844.9,1508.3c-1.8,1.5-4,2.3-6.2,2.3c-2.3,0-4.6-0.8-6.4-2.5l-43.9-39.8l-83.2,83.7h275.1l-88-84.5
			L1844.9,1508.3z"></path>
    </g>
    <g>
      <polygon fill="#FFDF6E" points="1994.5 1539.3 1994.5 1380.1 1906.8 1455.2"></polygon>
    </g>
    <g>
      <path fill="#FFD6D3" d="M1797,1169.4c-1.5,12.6,1.4,24.6,7.5,30.5c4.2,4.1,10,5.6,17.8,4.5c22-3.1,34.7-38.3,36.4-43.4
			c0.7-4.5,1.8-7.9,3.2-12.6c0.4-1.4,0.9-3,1.4-4.9c7.8-27,21.9-54.5,37.6-73.5c4.3-5.2,8.8-9.9,13.4-14c-13.4-8.6-38.1-19.7-61.9-6
			c-15.4,8.9-29.3,29.4-40.3,59.3C1802.9,1134.4,1798.3,1158.9,1797,1169.4z"></path>
    </g>
    <g>
      <path d="M691.6,487.9c57.9,0,105-47.1,105-105s-47.1-105-105-105c-57.9,0-105,47.1-105,105S633.7,487.9,691.6,487.9z"></path>
    </g>
    <g>
      <polygon fill="#FFF" points="1828.9 38.9 1517.9 86.4 1588.8 111.5"></polygon>
    </g>
    <g>
      <path fill="#FFF" d="M1605.1,140.5c3.7,11.6,8.8,27.7,15.1,47.8c4.2,13.5,8.4,27,12,38.5l22.6-81.3c0.7-2.7,2.6-4.9,5.1-6
			l177.5-83.4l-236.5,71.5C1602,131,1603.4,135.3,1605.1,140.5z"></path>
    </g>
    <g>
      <polygon fill="#FFF" points="1801.4 186.7 1925.1 35.8 1688.8 146.8"></polygon>
    </g>
    <g>
      <path fill="#FFD6D3" d="M1880,1154c-1.3,4.3-2.1,6.9-2.6,10.1c0,0.4-0.1,0.8-0.2,1.1c-0.3,2-0.5,4.2-0.7,7.2
			c-0.7,9.8,2.2,17.5,8.4,22.4c7,5.5,17.4,6.6,28.6,3c23.2-7.4,34.4-27.1,39.8-42.3c1.7-4.8,3.5-9.4,5.2-13.9
			c3-7.9,5.9-15.4,8.1-23.3c1.4-5,6.6-8,11.7-6.6c5,1.4,8,6.6,6.6,11.7c-1.2,4.2-2.5,8.3-4,12.4h87.1c-9.6-20.5-38.4-70.7-94.1-81
			c-20.6-3.8-40.2,5.4-58.4,27.4c-14.1,17.1-26.9,42.1-34,66.7C1880.9,1150.8,1880.4,1152.5,1880,1154z"></path>
    </g>
    <g>
      <path fill="#FFD6D3" d="M602.4,962.1c-7.5,1.1-12.9,7.3-14.8,11.1c-2.9,6.2-4.5,13.2-6.2,20.6c-1.7,7.6-3.5,15.4-6.9,23.1
			c-4.6,10.5-11.7,20.6-19.9,28.4c-6.7,6.4-14.3,10.4-22,11.8c-12.4,2.1-24.6-3.3-32.8-14.5c-13.9-19-18.1-57.1-3-79.8
			c9.7-14.5,25.1-20,43.6-15.5c23.3,5.6,41.8,4,50.8-4.5c7.4-7,7.2-17.7,5.8-25.5c-1.6-8.8-7-16.2-15.8-22
			c-20.2-13.3-55.3-15.9-93.8-7.1c-56.7,13-53.4,71.8-53.2,74.3c0.4,5.2-3.6,9.7-8.8,10.1c-0.4,0-0.9,0-1.3,0c-0.1,0-0.1,0-0.2,0
			c-2.4,0-4.8-0.9-6.6-2.7c-0.3-0.3-1.9-2-8.7-8.9c-19.2-19.6-64.1-65.7-73-74.2c-7.8-7.4-21-14.6-33-14.1c-6.2,0.3-11,2.6-14.9,7
			c-8.1,9.3-6.5,25-1.4,36.8c17.1,8.4,51.1,38.6,108.3,96.4l3,3c3.7,3.7,3.7,9.7,0,13.4c-1.8,1.8-4.3,2.7-6.7,2.7
			c-2.4,0-4.9-0.9-6.7-2.8l-3-3.1c-71.7-72.4-96.6-90.7-104.8-93.4c-4.8-1.5-12-2.9-19.3-0.3c-10.1,3.6-16.2,12.6-16.6,24.8
			c-0.3,8.6,2.3,20.4,10.8,25.1c0.8,0.4,1.4,0.9,2,1.5c15.7,5.8,29.9,20.2,42.7,33.3c2.1,2.1,4.1,4.1,6,6.1
			c11.5,11.4,22.9,22.7,34.4,34.1l14,13.9c3.7,3.7,3.7,9.7,0.1,13.4c-3.7,3.7-9.7,3.7-13.4,0.1l-14-13.9
			c-11.5-11.4-22.9-22.7-34.4-34.1c-2-2-4.1-4.1-6.2-6.2c-13.7-14-30.8-31.4-44.9-30.2c-12.7,1-20.8,5.8-24.1,14.3
			c-5.9,15.1,3.3,40.5,21.8,60.5c25.5,27.5,56,59.3,89.2,87.6c7.5,6.4,14.9,13.1,22.1,19.5c21.6,19.5,42,37.9,66.8,51.3
			c48,26.1,98.9,24.2,139.7-5.3c36.5-26.4,64.6-69.6,75.2-115.6c9.9-43,14.5-121,0.6-136.6C622.2,968.9,612.4,960.7,602.4,962.1z
			 M480.9,1153.8c-1.8,1.8-4.2,2.7-6.6,2.7c-2.5,0-4.9-1-6.8-2.9c-23.3-24.1-58.5-36.1-91.7-31.5c-5.2,0.8-10-2.9-10.7-8.1
			c-0.7-5.2,2.9-10,8.1-10.7c39.1-5.5,80.4,8.7,107.9,37C484.8,1144.1,484.7,1150.1,480.9,1153.8z"></path>
    </g>
    <g>
      <path fill="#FFDF6E" d="M1185.8,1162c0-14.5,11.8-26.2,26.2-26.2h416.5c0-0.2,0.1-0.4,0.1-0.6c-110-54.7-237.1-87.3-388.1-99.6
			c-46.9,32.8-92.5,42.8-130.6,42.8c-18,0-34.3-2.2-48.3-5.3c-39.8-8.8-67.9-25.8-77-31.7c-25.8,4.2-52.5,7.9-78.4,11.4
			c-87.5,12.1-178,24.6-258.4,57.7c-0.5,2.7-1,4.9-1.3,6.5c-11.3,49.4-41.3,96-80.4,125.1c-11,25.8-110.4,257.1-150.6,334.8
			c-1.7,3.3-5,5.1-8.4,5.1c-1.5,0-3-0.3-4.3-1.1c-4.6-2.4-6.5-8.1-4.1-12.8c34-65.6,110.9-242.6,139.8-309.6
			c-18.2,8.2-37.5,12.4-57.3,12.4c-25.5,0-51.6-6.9-77-20.7c-26.7-14.5-48.9-34.5-70.4-53.9c-7.1-6.4-14.4-13-21.7-19.2
			c-18.4-15.7-35.9-32.4-52.2-48.8c-33.6,49.2-213.4,316.2-235.1,417.6c-15.4,71.8,1,141.1,46.2,195.1
			c45.8,54.7,117,86.7,191.9,86.7c3.1,0,6.2-0.1,9.3-0.2c119.1-4.2,177.8-51,347.1-234.6l-6.6-163.9c-0.2-5.2,3.9-9.6,9.1-9.8
			c0.1,0,0.3,0,0.4,0c5.1,0,9.2,4,9.5,9.1l23.1,572h537.8c-4.1-4.6-6.6-10.7-6.6-17.3V1162z"></path>
    </g>
    <g>
      <path fill="#FFD6D3" d="M1319.3,840c2-4.8,7.5-7.1,12.4-5.2c4.8,2,7.1,7.5,5.2,12.4c-0.2,0.4-0.4,0.8-0.5,1.2
			c7.5,2.4,15.2,3.1,23,2c29.1-3.8,49.7-30.7,45.9-59.8c-3.8-28.8-29.4-49-58.3-46.1c-3.8,0.4-7.5-1.6-9.3-5l-25.1-46.9
			c-111,7.2-197.7-10.8-257.7-53.6c-32.2-23-48-47.3-54.8-60.7c-90.5,51-115.4,157.7-115.7,158.8c-1.1,4.7-5.4,7.8-10.2,7.3
			c-28.9-3-54.5,17.2-58.3,46.1c-1.9,14.1,1.9,28.1,10.5,39.4c8.7,11.3,21.2,18.6,35.3,20.4c7.5,1,14.8,0.4,22-1.7
			c-0.7-1.6-1.3-3.1-1.9-4.7c-1.9-4.9,0.4-10.4,5.3-12.3c4.9-1.9,10.4,0.4,12.3,5.3c30.3,76.3,99.6,130.4,181,141.1
			C1182,991.6,1280.3,934.8,1319.3,840z M1328.2,795.2c21.7-11.6,45.3-11.6,46.3-11.6c5.2,0,9.4,4.3,9.4,9.5c0,5.2-4.3,9.4-9.5,9.4
			c0,0,0,0,0,0c-0.2,0-19.9,0.1-37.3,9.4c-1.4,0.8-2.9,1.1-4.4,1.1c-3.4,0-6.7-1.8-8.4-5C1321.9,803.4,1323.6,797.7,1328.2,795.2z
			 M896.6,808c-1.7,3.2-5,5-8.4,5c-1.5,0-3-0.4-4.4-1.1c-17.4-9.3-37.1-9.4-37.3-9.4c0,0,0,0,0,0c-5.2,0-9.5-4.2-9.5-9.4
			c0-5.2,4.2-9.5,9.4-9.5c0.9,0,24.5,0,46.3,11.6C897.4,797.7,899.1,803.4,896.6,808z M1086.9,767.3c7-6.3,24.6-14.4,40.7-0.6
			c4,3.4,4.4,9.4,1,13.3c-3.4,4-9.4,4.4-13.3,1c-7.6-6.5-15-0.3-15.8,0.4c-1.8,1.6-4,2.4-6.3,2.4c-2.6,0-5.2-1.1-7.1-3.2
			C1082.6,776.8,1083,770.8,1086.9,767.3z M1027.5,756c-11.3,0-20.5-9.2-20.5-20.5c0-11.3,9.2-20.5,20.5-20.5
			c11.3,0,20.5,9.2,20.5,20.5C1048,746.9,1038.8,756,1027.5,756z M1160.5,820.9c-19.6,11.6-37.6,15.6-53.2,15.6
			c-32,0-53.2-16.8-54.5-17.9c-4.1-3.3-4.7-9.3-1.4-13.3c3.3-4,9.2-4.7,13.3-1.4c1.6,1.3,37.8,29.4,86.1,0.7
			c4.5-2.7,10.3-1.2,13,3.3C1166.5,812.5,1165,818.3,1160.5,820.9z M1190.6,756c-11.3,0-20.5-9.2-20.5-20.5
			c0-11.3,9.2-20.5,20.5-20.5s20.5,9.2,20.5,20.5C1211.1,746.9,1201.9,756,1190.6,756z"></path>
    </g>
    <g>
      <path d="M867.9,725.3c8-27.9,41-122.8,132.4-168.5c2.5-1.2,5.4-1.3,7.9-0.3c2.5,1.1,4.5,3.2,5.3,5.8c3.7,11.1,19.6,38.5,53.5,62.2
			c39.5,27.7,115,58.6,250.2,48.7c3.8-0.3,7.3,1.7,9,5l25.1,47c12.6-0.2,24.6,2.8,35.1,8.4c1-3.6,10-38,13.1-80.7
			c3-40.7,1.2-97.4-24.5-136.9c-17-26.1-45.1-43.2-83.5-50.8c-29.5-5.8-54.1-3.5-54.4-3.5c-1.8,0.2-3.7-0.2-5.4-1.1
			c-65.5-34.9-131.1-45.9-195.1-32.6c-54.8,11.4-88.2,37.2-88.6,37.5c-0.7,0.6-1.6,1-2.4,1.4c-0.1,0-11.3,4.5-28,15.8
			c-15.3,10.4-38.6,28.8-62,57.6c-57.8,71.1-25.9,177.7-20.9,193C844.7,728.4,856,725.4,867.9,725.3z"></path>
    </g>
    <g>
      <path fill="#FFD6D3" d="M1077.8,996.9c-28.8-3.8-56.2-12.6-81.2-25.7v55.2c9.4,5.9,35,20.7,69.8,28.3
			c57.1,12.4,111.6,1.1,162-33.8v-52.5c-35.7,19.7-76.4,30.6-118.5,30.6C1099.3,999.1,1088.6,998.4,1077.8,996.9z"></path>
    </g>
    <g>
      <circle cx="1284.7" cy="1195.7" r="19.8" fill="#FFF"></circle>
    </g>
    <g>
      <circle cx="1348.5" cy="1195.7" r="19.8"></circle>
    </g>
    <g>
      <circle cx="1412.3" cy="1195.7" r="19.8" fill="#FFDF6E"></circle>
    </g>
    <g>
      <circle cx="975.6" cy="793.4" r="44.3" fill="#FFBEB9"></circle>
    </g>
    <g>
      <circle cx="1236.4" cy="801.5" r="44.3" fill="#FFBEB9"></circle>
    </g>
    <g>
      <path fill="#FFA241" d="M2031.5,1884.4H1655c-73,0-132.2-59.2-132.2-132.2v0c0-73,59.2-132.2,132.2-132.2h376.5
			c73,0,132.2,59.2,132.2,132.2v0C2163.7,1825.2,2104.5,1884.4,2031.5,1884.4z"></path>
    </g>
    <g>
      <path fill="#FFF" d="M1701.9 1780.5c0 7.5-1.9 14.2-5.8 20.1-3.8 6-9.5 10.6-16.9 14-7.4 3.4-16.2 5.1-26.4 5.1-12.2 0-22.2-2.3-30.2-6.9-5.6-3.3-10.2-7.7-13.7-13.3-3.5-5.5-5.3-10.9-5.3-16.1 0-3 1.1-5.6 3.2-7.8 2.1-2.2 4.8-3.2 8-3.2 2.6 0 4.9.8 6.7 2.5 1.8 1.7 3.4 4.2 4.7 7.5 1.6 3.9 3.3 7.2 5.1 9.9 1.8 2.6 4.4 4.8 7.7 6.5s7.7 2.6 13.1 2.6c7.4 0 13.4-1.7 18.1-5.2 4.6-3.5 6.9-7.8 6.9-12.9 0-4.1-1.3-7.4-3.7-10-2.5-2.6-5.7-4.5-9.7-5.9s-9.3-2.8-15.9-4.3c-8.9-2.1-16.3-4.5-22.3-7.3-6-2.8-10.7-6.6-14.2-11.4-3.5-4.8-5.3-10.8-5.3-17.9 0-6.8 1.9-12.8 5.6-18.1 3.7-5.3 9.1-9.3 16.1-12.2 7-2.8 15.3-4.3 24.8-4.3 7.6 0 14.1.9 19.7 2.8 5.5 1.9 10.1 4.4 13.8 7.5 3.6 3.1 6.3 6.4 8 9.8 1.7 3.4 2.5 6.8 2.5 10 0 3-1.1 5.7-3.2 8-2.1 2.4-4.7 3.6-7.9 3.6-2.9 0-5-.7-6.5-2.1-1.5-1.4-3.1-3.8-4.8-7-2.2-4.7-4.9-8.3-8.1-10.9-3.1-2.6-8.2-3.9-15.2-3.9-6.5 0-11.7 1.4-15.6 4.3s-5.9 6.2-5.9 10.2c0 2.5.7 4.6 2 6.4 1.3 1.8 3.2 3.3 5.6 4.6 2.4 1.3 4.7 2.3 7.2 3 2.4.7 6.4 1.8 12 3.2 7 1.6 13.3 3.4 18.9 5.4 5.6 2 10.4 4.4 14.4 7.2 4 2.8 7 6.4 9.3 10.7C1700.8 1769 1701.9 1774.3 1701.9 1780.5zM1804.4 1713.4h-56.3v30.3h51.9c3.8 0 6.7.9 8.5 2.6 1.9 1.7 2.8 4 2.8 6.8 0 2.8-.9 5.1-2.8 6.9-1.9 1.8-4.7 2.7-8.6 2.7h-51.9v35.1h58.3c3.9 0 6.9.9 8.9 2.7 2 1.8 3 4.3 3 7.3 0 2.9-1 5.3-3 7.1-2 1.8-5 2.7-8.9 2.7h-68c-5.4 0-9.4-1.2-11.7-3.6-2.4-2.4-3.6-6.3-3.6-11.7v-92.8c0-3.6.5-6.5 1.6-8.8 1.1-2.3 2.7-3.9 5-5 2.3-1 5.2-1.6 8.7-1.6h66c4 0 6.9.9 8.9 2.7 1.9 1.8 2.9 4.1 2.9 6.9 0 2.9-1 5.3-2.9 7C1811.4 1712.5 1808.4 1713.4 1804.4 1713.4zM1870.7 1707l48.1 72.8v-73.4c0-4.8 1-8.4 3.1-10.7 2-2.4 4.8-3.6 8.3-3.6 3.6 0 6.4 1.2 8.5 3.6 2.1 2.4 3.1 6 3.1 10.7v97.1c0 10.8-4.5 16.3-13.5 16.3-2.2 0-4.3-.3-6.1-1-1.8-.6-3.5-1.7-5.1-3.1-1.6-1.4-3-3-4.4-4.9-1.3-1.9-2.7-3.8-4-5.8l-46.9-71.9v72.3c0 4.7-1.1 8.3-3.3 10.7-2.2 2.4-5 3.6-8.4 3.6-3.5 0-6.4-1.2-8.5-3.7-2.1-2.4-3.2-6-3.2-10.7v-95.3c0-4 .4-7.2 1.3-9.5 1.1-2.5 2.8-4.6 5.3-6.2 2.5-1.6 5.1-2.4 8-2.4 2.2 0 4.2.4 5.8 1.1 1.6.7 3 1.7 4.2 2.9 1.2 1.2 2.4 2.8 3.7 4.8C1868.1 1702.8 1869.4 1704.9 1870.7 1707zM1984.7 1694.1h32.6c8.5 0 15.7.8 21.8 2.4s11.6 4.5 16.5 8.8c12.9 11 19.3 27.7 19.3 50.2 0 7.4-.6 14.2-1.9 20.3-1.3 6.1-3.3 11.6-6 16.5-2.7 4.9-6.1 9.3-10.4 13.2-3.3 3-6.9 5.4-10.9 7.2-3.9 1.8-8.2 3.1-12.7 3.8-4.5.7-9.6 1.1-15.3 1.1h-32.6c-4.5 0-8-.7-10.3-2.1-2.3-1.4-3.8-3.3-4.5-5.8-.7-2.5-1.1-5.7-1.1-9.7v-90.5c0-5.4 1.2-9.3 3.6-11.7C1975.4 1695.3 1979.3 1694.1 1984.7 1694.1zM1994.4 1713.9v83.8h18.9c4.2 0 7.4-.1 9.8-.3 2.4-.2 4.8-.8 7.3-1.7 2.5-.9 4.7-2.2 6.6-3.8 8.4-7.1 12.5-19.3 12.5-36.6 0-12.2-1.8-21.3-5.5-27.4-3.7-6.1-8.2-9.9-13.6-11.6-5.4-1.7-11.9-2.5-19.5-2.5H1994.4z"></path>
    </g>
    <g>
      <path fill="#FFF" d="M686.5,435.5c-3.1,0-6-1.5-7.8-4l-40.8-58.3c-3-4.3-1.9-10.2,2.3-13.2c4.3-3,10.2-1.9,13.2,2.3l32.9,47.1
			l43.3-63.2c3-4.3,8.8-5.4,13.2-2.5c4.3,3,5.4,8.8,2.5,13.2l-51,74.5C692.5,433.9,689.6,435.5,686.5,435.5
			C686.5,435.5,686.5,435.5,686.5,435.5z"></path>
    </g>
    <path d="M561 594.7h-29.9l-2.8 12.6c-6.3-10.2-16.3-15.3-29.9-15.3-11.9 0-22.5 3.7-31.9 11-9.4 7.3-16.7 16.7-21.8 28.2-5.1 11.5-7.6 23.1-7.6 35 0 11.4 2.5 21 7.4 28.8 4.9 7.8 11.4 13.3 19.4 16.6 8 3.3 16.3 4.1 24.8 2.4s16.1-5.8 22.7-12.3c1.1 4.5 3.4 7.8 6.8 9.9 3.4 2.1 8.2 3.1 14.3 3.1 10.6 0 20.4-2.2 29.6-6.7 9.1-4.5 17.1-10.6 23.8-18.4 6.8-7.7 12-16.5 15.6-26.2 3.6-9.7 5.4-19.6 5.4-29.7 0-13-2.2-24.9-6.7-35.6-4.5-10.8-11-20.1-19.5-27.9-8.5-7.9-18.8-13.9-30.8-18.1-12-4.2-25.1-6.3-39.5-6.3-17.5 0-33.6 2.9-48.1 8.7-14.5 5.8-26.8 13.9-36.9 24.2s-17.8 22.4-23.2 36.4c-5.4 14-8 29-8 45.1 0 15.4 2.6 29.5 7.8 42.2 5.2 12.7 12.9 23.7 23.1 32.9 10.2 9.2 22.7 16.2 37.6 21.1 14.9 4.9 31.6 7.3 50.2 7.3 12.4 0 23.8-1.1 34.3-3.4 10.5-2.3 20-5.6 28.4-9.9 8.5-4.3 15.8-9.7 22.1-16 6.3-6.3 11.4-13.6 15.4-21.6h-24.1c-6.7 8.5-14.9 15-24.6 19.7-9.7 4.7-21.5 7.9-35.5 9.5-17.6 1.8-33.4 1.2-47.4-1.9-14-3.1-25.9-8.2-35.7-15.5-9.9-7.3-17.4-16.3-22.5-27.1-5.2-10.8-7.8-22.6-7.8-35.6 0-9.7 1.2-19.3 3.6-28.7 2.4-9.4 5.9-17.9 10.5-25.6 5.2-8.8 11.7-16.3 19.5-22.3 7.8-6 16.8-10.6 27.1-13.8 10.3-3.2 21.6-4.8 33.9-4.8 12.1 0 22.9 1.7 32.5 5 9.6 3.3 17.6 7.9 24.1 13.8 6.5 5.9 11.5 12.8 14.9 20.8 3.4 8 5.2 16.5 5.2 25.6 0 10.9-2.4 20.9-7.2 30.1-4.8 9.2-10.4 16.4-16.9 21.8-6.5 5.3-11.7 8-15.8 8-1.2 0-2.2-.5-3.1-1.5-.9-1-1.3-2.3-1.3-4.1 0-1.7.5-5.1 1.6-10.2L561 594.7zM517.8 664c-2.8 8.6-6.9 15.8-12.3 21.5-5.4 5.7-11.7 8.5-18.7 8.5-6.1 0-11.1-2.4-14.8-7.3-3.8-4.8-5.7-11.8-5.7-20.8 0-8.8 1.4-17.4 4.3-25.7 2.9-8.3 7-15 12.3-20.2 5.3-5.2 11.3-7.8 18-7.8 3.3 0 6.3.6 8.9 1.9 2.6 1.2 4.8 3.1 6.7 5.5 1.8 2.4 3.2 5.2 4.2 8.4.9 3.2 1.4 6.8 1.4 10.8C522 647 520.6 655.4 517.8 664zM1027.5 715c-11.3 0-20.5 9.2-20.5 20.5 0 11.3 9.2 20.5 20.5 20.5 11.3 0 20.5-9.2 20.5-20.5C1048 724.2 1038.8 715 1027.5 715zM1190.6 715c-11.3 0-20.5 9.2-20.5 20.5 0 11.3 9.2 20.5 20.5 20.5s20.5-9.2 20.5-20.5C1211.1 724.2 1201.9 715 1190.6 715zM2447.4 461.9h-200.8c-5.2 0-9.5 4.2-9.5 9.5v100.6h-33.4c-.2 0-.4 0-.7 0-.1 0-.1 0-.2 0-.6 0-1.1.2-1.6.3-.1 0-.1 0-.2 0-.5.2-1 .4-1.5.6-.1 0-.1.1-.2.1-.5.3-1 .6-1.4.9-.1 0-.1.1-.2.1-.5.4-.9.8-1.3 1.2 0 0 0 0-.1.1 0 0 0 0 0 0-.4.5-.7 1-1 1.5 0 0 0 0 0 0-.3.5-.5 1.1-.7 1.7 0 0 0 0 0 0-.2.6-.3 1.1-.4 1.7 0 0 0 .1 0 .1 0 .3-.1.7-.1 1v185.3c0 1 .1 1.9.4 2.7 0 0 0 0 0 0 .2.6.4 1.1.7 1.6 0 0 0 .1 0 .1.3.5.6 1 1 1.5 0 0 0 .1.1.1.4.5.8.9 1.3 1.3 0 0 0 0 0 0 0 0 .1 0 .1 0 .4.3.8.6 1.2.8 0 0 .1 0 .1.1.4.2.9.4 1.3.6.1 0 .2.1.2.1.4.1.9.3 1.3.3.1 0 .2 0 .3 0 .5.1.9.1 1.4.1 0 0 0 0 0 0 0 0 0 0 0 0 0 0 0 0 0 0h294.9c0 0 0 0 0 0 0 0 0 0 0 0 0 0 0 0 0 0 .5 0 1-.1 1.5-.1.1 0 .1 0 .2 0 .5-.1 1-.2 1.4-.4.1 0 .2-.1.2-.1.5-.2.9-.4 1.3-.6.1 0 .1-.1.2-.1.4-.3.9-.6 1.2-.9 0 0 .1 0 .1-.1 0 0 0-.1.1-.1.4-.4.8-.8 1.1-1.2.1-.1.1-.1.1-.2.3-.4.6-.9.8-1.4 0-.1.1-.1.1-.2.2-.5.4-1 .5-1.5 0-.1 0-.1.1-.2.1-.5.2-1 .2-1.6 0-.1 0-.2 0-.3 0-.1 0-.3 0-.4V581.4c0-.2 0-.4 0-.6 0-.1 0-.1 0-.2 0-.6-.1-1.1-.3-1.6 0-.1 0-.1-.1-.2-.2-.5-.4-1.1-.6-1.6 0-.1-.1-.1-.1-.2-.3-.5-.6-1-1-1.5 0 0 0 0 0-.1 0 0 0 0 0 0-.4-.5-.8-.9-1.3-1.3 0 0 0 0-.1-.1-.5-.4-1-.7-1.5-1 0 0 0 0 0 0-1-.6-2.2-.9-3.4-1.1 0 0-.1 0-.1 0-.3 0-.7-.1-1-.1h-41.7V471.3C2456.9 466.1 2452.6 461.9 2447.4 461.9zM2256.1 480.8h181.8v136.4c0 .2 0 .4 0 .5l-90.8 72.6-91.1-77.1V480.8zM2237.2 590.9v6.4l-7.6-6.4H2237.2zM2213.2 601.8l26.1 22.1c.7.9 1.6 1.6 2.6 2.2l37.8 32-66.5 81.9V601.8zM2223.6 757.2l70.6-86.9 46.7 39.6c1.8 1.5 3.9 2.2 6.1 2.2 2.1 0 4.2-.7 5.9-2.1l48.3-38.6 76.3 85.8H2223.6zM2489.1 741.8l-73.1-82.2 73.1-58.5V741.8zM2471.6 590.9l-14.7 11.8v-11.8H2471.6z"></path>
    <path d="M2294.2 531.5h107c5.2 0 9.5-4.2 9.5-9.5s-4.2-9.5-9.5-9.5h-107c-5.2 0-9.5 4.2-9.5 9.5S2289 531.5 2294.2 531.5zM2386.8 563.7c0-5.2-4.2-9.5-9.5-9.5h-83.1c-5.2 0-9.5 4.2-9.5 9.5s4.2 9.5 9.5 9.5h83.1C2382.5 573.2 2386.8 568.9 2386.8 563.7zM1469.7 81.8c-.4 4.3 2.2 8.4 6.3 9.8l105.4 37.3c5.8 16.8 28.2 88.7 42.2 134.4 0 0 0 0 0 0 0 .1.1.2.1.2.2.5.3.9.6 1.3.1.2.2.3.3.5.2.4.4.7.7 1 .1.1.1.2.2.2.1.1.2.2.3.4.1.1.2.2.2.3.3.3.7.6 1 .9 0 0 0 0 .1 0 .3.3.7.5 1.1.7.1 0 .2.1.3.1.4.2.8.4 1.2.5 0 0 0 0 0 0 .4.1.9.2 1.3.3.1 0 .2 0 .3.1.4.1.9.1 1.3.1 0 0 0 0 0 0 0 0 0 0 0 0 0 0 0 0 0 0h0c0 0 .1 0 .1 0 .3 0 .6-.1.9-.1.2 0 .4 0 .6-.1.5-.1 1-.2 1.5-.4.1-.1.3-.1.4-.2.4-.1.7-.3 1-.5.2-.1.3-.2.5-.3.3-.2.6-.4.9-.6.1 0 .1-.1.2-.1l98.8-83.6 63.8 22.6c1 .4 2.1.5 3.2.5 2.8 0 5.5-1.2 7.3-3.5l154.4-188.4c.2-.2.3-.4.4-.6.1-.1.2-.3.3-.4.6-.9 1-1.9 1.2-2.9 0-.2.1-.3.1-.5.1-.4.1-.7.1-1.1 0-.2 0-.4 0-.6 0-.4 0-.7-.1-1.1 0-.2 0-.4-.1-.5-.1-.5-.2-1.1-.4-1.6 0 0 0 0 0 0 0 0 0 0 0-.1-.2-.4-.4-.8-.6-1.2 0-.1-.1-.1-.1-.2-.1-.2-.2-.3-.3-.5-.2-.3-.4-.6-.6-.8-.1-.2-.3-.3-.4-.5-.2-.3-.5-.5-.8-.7-.1-.1-.3-.2-.4-.3-.4-.3-.8-.5-1.2-.7-.1 0-.1-.1-.2-.1-.5-.2-1-.4-1.5-.6-.1 0-.3-.1-.4-.1-.4-.1-.8-.2-1.1-.2-.2 0-.4 0-.6 0-.4 0-.7 0-1.1 0-.2 0-.4 0-.6 0-.1 0-.2 0-.3 0l-479.8 73.3C1473.4 74 1470.1 77.5 1469.7 81.8zM1650 233.4l20.3-73.1 46.6 16.5L1650 233.4zM1801.4 186.7l-112.6-39.8 236.3-111L1801.4 186.7zM1659.9 139.5c-2.5 1.2-4.4 3.4-5.1 6l-22.6 81.3c-3.6-11.5-7.8-25.1-12-38.5-6.3-20.2-11.4-36.3-15.1-47.8-1.7-5.2-3.1-9.5-4.2-12.9l236.5-71.5L1659.9 139.5zM1828.9 38.9l-240.1 72.6-71-25.1L1828.9 38.9zM2482.5 1135.7h-393.9c-5.7-14.7-37.2-85.9-111.3-99.6-16.1-3-31.9-.2-46.8 8.2-14.3-10.4-50.8-31.9-87.6-10.6-3.4 2-6.6 4.2-9.6 6.8-33.1-21.9-65.9-10.2-79.8-.1-6.8-4.1-17-6.7-27.7-6.8-12.5-.1-36.6 3.2-57.9 26.8-16.2 18-27.8 37.4-34.4 56-110.1-54.1-236.7-86.6-386.2-99.3v-60.3c33.6-22.7 61.7-53.8 80.9-91.2.2.1.5.2.7.3 10.6 3.6 21.6 4.7 32.8 3.2 39.5-5.2 67.4-41.6 62.2-81.1-2.3-17.7-10.7-32.9-22.8-44 1.6-1.2 2.9-2.9 3.4-5 .4-1.5 10.3-37.6 13.8-84.3 4.7-63.5-4.5-113.7-27.5-149-19.7-30.3-53-50.7-96.3-59.1-26.3-5.1-48.6-4.3-56.4-3.8-68.7-36.1-137.8-47.2-205.4-33.1-54.4 11.3-88.7 35.4-95.3 40.3-8.2 3.5-52.1 24-96.5 78.6-28.6 35.3-41.7 83.4-37.9 139.3 2.9 41.7 14 72.7 14.5 74 .4 1 .9 2 1.6 2.8-11.7 11-19.9 26.1-22.2 43.4-2.5 19.1 2.6 38.1 14.3 53.4 11.7 15.3 28.7 25.1 47.9 27.7 3.2.4 6.4.6 9.6.6 7.8 0 15.5-1.3 22.9-3.8 20.1 38.9 50 71.3 86.1 94.4-.1.5-.1.9-.1 1.4v61.5c-24.3 3.9-49.6 7.4-74 10.7-84.9 11.7-172.5 23.8-252.3 54.6 5.6-39.2 10.5-103.7-8.7-125.2-10.9-12.2-21.1-17.6-29.8-19.5 3.8-8.6 4.7-18.9 2.6-30.2-2.6-13.9-10.9-25.8-24.1-34.4-24.8-16.3-64.3-19.8-108.4-9.7-38 8.8-54.5 34.1-61.6 53.7-2.4 6.6-3.9 13-4.8 18.7-21.2-21.7-59.6-61.1-68-69.1-9.9-9.4-28.2-20.1-46.9-19.3-11.3.5-21.1 5.2-28.3 13.5-10.8 12.3-12.1 29.5-8.5 44.9-4.9.1-9.7.9-14.3 2.5-17.6 6.2-28.5 21.9-29.2 42-.3 8.2 1.2 17.8 5.4 26.1-15.1 3.4-26 12-31 24.9-8.6 22.2 1.6 54.4 25.6 80.2 7.9 8.5 16.2 17.4 25 26.5C217.8 1155.9 29.4 1433.3 6.1 1542c-16.7 77.7 1.2 152.7 50.2 211.2 25.1 29.9 57.8 54.2 94.6 70.4 34.6 15.2 73.1 23.1 111.8 23.1 3.3 0 6.7-.1 10-.2 65.8-2.3 113.5-17.8 164.7-53.2 50-34.7 105.6-90.3 182.8-173.6l15.4 380.6h18.9l-23.1-572c-.2-5.1-4.4-9.1-9.5-9.1-.1 0-.3 0-.4 0-5.2.2-9.3 4.6-9.1 9.8l6.6 163.9c-169.3 183.6-228 230.4-347.1 234.6-3.1.1-6.2.2-9.3.2-74.9 0-146.1-32-191.9-86.7-45.2-53.9-61.6-123.2-46.2-195.1 21.8-101.5 201.6-368.4 235.1-417.6 16.3 16.4 33.8 33.1 52.2 48.8 7.3 6.2 14.6 12.8 21.7 19.2 21.5 19.4 43.7 39.4 70.4 53.9 25.4 13.8 51.6 20.7 77 20.7 19.8 0 39.1-4.2 57.3-12.4-28.9 67-105.8 244-139.8 309.6-2.4 4.6-.6 10.4 4.1 12.8 1.4.7 2.9 1.1 4.3 1.1 3.4 0 6.7-1.9 8.4-5.1 40.2-77.7 139.6-309 150.6-334.8 39.1-29.1 69.1-75.6 80.4-125.1.4-1.6.8-3.8 1.3-6.5 80.4-33.1 170.9-45.6 258.4-57.7 25.9-3.6 52.7-7.3 78.4-11.4 9.1 6 37.2 22.9 77 31.7 14 3.1 30.3 5.3 48.3 5.3 38.1 0 83.7-10 130.6-42.8 151 12.3 278 44.9 388.1 99.6 0 .2-.1.4-.1.6H1212c-14.5 0-26.2 11.8-26.2 26.2v821c0 6.6 2.5 12.7 6.6 17.3 4.8 5.5 11.8 8.9 19.7 8.9h1270.4c7.8 0 14.9-3.5 19.7-8.9 4.1-4.6 6.6-10.7 6.6-17.3v-821C2508.7 1147.5 2496.9 1135.7 2482.5 1135.7zM628 1112.7c-10.6 46-38.7 89.2-75.2 115.6-40.8 29.4-91.7 31.4-139.7 5.3-24.7-13.4-45.2-31.8-66.8-51.3-7.2-6.5-14.6-13.1-22.1-19.5-33.2-28.3-63.7-60.2-89.2-87.6-18.5-20-27.7-45.4-21.8-60.5 3.3-8.5 11.4-13.3 24.1-14.3 14.1-1.1 31.1 16.3 44.9 30.2 2.1 2.1 4.2 4.2 6.2 6.2 11.5 11.4 22.9 22.7 34.4 34.1l14 13.9c3.7 3.7 9.7 3.7 13.4-.1 3.7-3.7 3.7-9.7-.1-13.4l-14-13.9c-11.5-11.4-22.9-22.8-34.4-34.1-2-1.9-4-4-6-6.1-12.9-13.1-27-27.4-42.7-33.3-.6-.6-1.3-1.1-2-1.5-8.4-4.7-11.1-16.5-10.8-25.1.4-12.2 6.5-21.2 16.6-24.8 7.3-2.6 14.5-1.3 19.3.3 8.2 2.7 33.1 21 104.8 93.4l3 3.1c1.9 1.9 4.3 2.8 6.7 2.8 2.4 0 4.8-.9 6.7-2.7 3.7-3.7 3.7-9.7 0-13.4l-3-3c-57.3-57.8-91.2-88-108.3-96.4-5.1-11.9-6.7-27.5 1.4-36.8 3.9-4.4 8.8-6.7 14.9-7 12.1-.5 25.2 6.7 33 14.1 9 8.5 53.8 54.5 73 74.2 6.8 6.9 8.4 8.6 8.7 8.9 1.8 1.8 4.2 2.7 6.6 2.7.1 0 .1 0 .2 0 .4 0 .9 0 1.3 0 5.2-.4 9.1-4.9 8.8-10.1-.2-2.5-3.5-61.2 53.2-74.3 38.5-8.9 73.6-6.2 93.8 7.1 8.9 5.8 14.2 13.2 15.8 22 1.4 7.8 1.6 18.5-5.8 25.5-9 8.5-27.5 10.2-50.8 4.5-18.5-4.5-34 1.1-43.6 15.5-15.1 22.7-10.9 60.8 3 79.8 8.2 11.2 20.5 16.7 32.8 14.5 7.7-1.3 15.3-5.4 22-11.8 8.2-7.8 15.3-17.9 19.9-28.4 3.4-7.7 5.2-15.5 6.9-23.1 1.7-7.4 3.3-14.4 6.2-20.6 1.8-3.9 7.3-10.1 14.8-11.1 10.1-1.5 19.8 6.8 26.2 14C642.6 991.7 637.9 1069.8 628 1112.7zM568.6 969.5c-2.6 6.7-4.2 13.5-5.7 20.2-1.6 7-3.1 13.6-5.8 19.6-3.7 8.3-9.2 16.2-15.7 22.3-2.8 2.6-7.1 6-12.2 6.8-7.6 1.3-12.9-5.1-14.4-7.1-10.7-14.6-12-43.9-2.5-58.1 3.8-5.8 9.1-8.6 15.9-8.6 2.3 0 4.8.3 7.5 1C548.8 968.8 559.6 969.8 568.6 969.5zM855.7 540.6c23.4-28.8 46.6-47.3 62-57.6 16.6-11.3 27.9-15.8 28-15.8.9-.3 1.7-.8 2.4-1.4.3-.3 33.7-26.1 88.6-37.5 64-13.3 129.6-2.3 195.1 32.6 1.6.9 3.5 1.3 5.4 1.1.2 0 24.9-2.3 54.4 3.5 38.4 7.6 66.5 24.6 83.5 50.8 25.7 39.5 27.5 96.2 24.5 136.9-3.1 42.7-12.1 77.1-13.1 80.7-10.5-5.6-22.4-8.6-35.1-8.4l-25.1-47c-1.8-3.3-5.3-5.2-9-5-135.2 9.8-210.7-21.1-250.2-48.7-33.8-23.7-49.8-51.1-53.5-62.2-.8-2.6-2.8-4.8-5.3-5.8-2.5-1.1-5.4-1-7.9.3-91.4 45.7-124.5 140.6-132.4 168.5-11.9.1-23.2 3.1-33.1 8.3C829.7 718.3 797.9 611.8 855.7 540.6zM1228.4 1021c-50.4 34.9-104.9 46.3-162 33.8-34.9-7.6-60.5-22.3-69.8-28.3v-55.2c25 13 52.4 21.9 81.2 25.7 10.8 1.4 21.5 2.1 32.2 2.1 42.1 0 82.8-10.9 118.5-30.6V1021zM1080.3 978.2c-81.3-10.7-150.6-64.8-181-141.1-1.9-4.9-7.4-7.2-12.3-5.3-4.9 1.9-7.2 7.4-5.3 12.3.6 1.6 1.3 3.1 1.9 4.7-7.1 2.1-14.5 2.7-22 1.7-14.1-1.9-26.7-9.1-35.3-20.4-8.7-11.3-12.4-25.3-10.5-39.4 3.8-28.8 29.4-49.1 58.3-46.1 4.8.5 9.2-2.7 10.2-7.3.2-1.1 25.2-107.8 115.7-158.8 6.8 13.4 22.5 37.7 54.8 60.7 60 42.8 146.7 60.8 257.7 53.6l25.1 46.9c1.8 3.4 5.5 5.3 9.3 5 28.9-3 54.5 17.2 58.3 46.1 3.8 29.1-16.7 56-45.9 59.8-7.8 1-15.6.3-23-2 .2-.4.4-.8.5-1.2 2-4.8-.3-10.4-5.2-12.4-4.8-2-10.4.3-12.4 5.2C1280.3 934.8 1182 991.6 1080.3 978.2zM1973.9 1054.8c55.6 10.3 84.4 60.5 94.1 81h-87.1c1.4-4 2.8-8.1 4-12.4 1.4-5-1.5-10.3-6.6-11.7-5-1.4-10.3 1.5-11.7 6.6-2.2 7.9-5.1 15.4-8.1 23.3-1.7 4.5-3.5 9.1-5.2 13.9-5.4 15.2-16.6 34.9-39.8 42.3-11.2 3.6-21.6 2.5-28.6-3-6.2-4.8-9.1-12.6-8.4-22.4.2-3 .4-5.2.7-7.2.1-.4.1-.8.2-1.1.5-3.2 1.3-5.8 2.6-10.1.4-1.5.9-3.1 1.5-5 7.2-24.6 19.9-49.6 34-66.7C1933.6 1060.2 1953.3 1050.9 1973.9 1054.8zM1852.4 1050.2c23.8-13.8 48.5-2.6 61.9 6-4.6 4.1-9.1 8.8-13.4 14-15.7 19-29.8 46.5-37.6 73.5-.5 1.8-1 3.4-1.4 4.9-1.4 4.7-2.4 8.1-3.2 12.6-1.7 5.1-14.4 40.3-36.4 43.4-7.8 1.1-13.6-.4-17.8-4.5-6-5.9-9-17.9-7.5-30.5 1.3-10.5 5.9-35.1 15-60C1823 1079.6 1837 1059.1 1852.4 1050.2zM1764.3 1056c9.3-7 31.8-15.3 55.6-1.5-32.1 41-41.6 111.8-41.7 112.6-.3 2.3-.4 4.5-.5 6.7-6.9 12-19.8 20.7-30.7 20.7-.2 0-.3 0-.5 0-9.5-.2-17.3-6.9-23.3-19.9C1710.5 1147.5 1734.4 1078.7 1764.3 1056zM1682 1073.1c14.7-16.3 30.5-20.1 41.3-20.5 6.4-.2 11.7.8 15.5 2-11.7 13.8-22.1 32.6-29.2 53.5-8.6 25.1-10.9 48.2-6.8 65.2-7.6 7.5-18.2 14.6-28.4 15.1-6.3.3-11.8-2-17-6.9C1635.4 1160.5 1646.2 1112.9 1682 1073.1zM1204.7 1162c0-4 3.3-7.3 7.3-7.3h415.2c.7 16.1 6.3 30.2 17.1 40.4 8.4 8 18.4 12.2 29.1 12.2.6 0 1.2 0 1.8 0 4.7-.2 19.5-2 35.6-15.7 6.6 10.3 17.8 21.5 35.2 22 .3 0 .7 0 1 0 13.3 0 25.4-6.3 34.7-14.9 2.3 5.8 5.5 10.8 9.5 14.8 5 4.9 13.4 10.2 26.4 10.2 2.3 0 4.7-.2 7.3-.5 16.7-2.3 28.9-14.4 37.4-26.9 2.6 5.2 6.3 9.7 10.9 13.3 7.7 6 17.3 9.1 27.8 9.1 5.9 0 12-1 18.2-3 23.9-7.6 42.3-26.8 51.9-54 .8-2.4 1.7-4.7 2.6-7.1h508.8c4 0 7.3 3.3 7.3 7.3v74c-.4 0-.8-.1-1.2-.1H1204.7V1162zM1204.7 1254.8h1283.9c.4 0 .8 0 1.2-.1V1983c0 4-3.3 7.3-7.3 7.3H1212c-4 0-7.3-3.3-7.3-7.3V1254.8z"></path>
    <path d="M892.7 795.2c-21.7-11.6-45.4-11.6-46.3-11.6-5.2 0-9.4 4.3-9.4 9.5 0 5.2 4.3 9.4 9.5 9.4 0 0 0 0 0 0 .2 0 19.9.1 37.3 9.4 1.4.8 2.9 1.1 4.4 1.1 3.4 0 6.7-1.8 8.4-5C899.1 803.4 897.4 797.7 892.7 795.2zM1332.7 813.1c1.5 0 3-.4 4.4-1.1 17.4-9.3 37.1-9.4 37.3-9.4 0 0 0 0 0 0 5.2 0 9.4-4.2 9.5-9.4 0-5.2-4.2-9.5-9.4-9.5-1 0-24.5 0-46.3 11.6-4.6 2.5-6.4 8.2-3.9 12.8C1326.1 811.2 1329.3 813.1 1332.7 813.1zM1093.1 783.9c2.2 0 4.5-.8 6.3-2.4.8-.7 8.2-6.9 15.8-.4 4 3.4 9.9 2.9 13.3-1 3.4-4 2.9-9.9-1-13.3-16.1-13.8-33.7-5.6-40.7.6-3.9 3.5-4.3 9.5-.8 13.4C1087.9 782.8 1090.5 783.9 1093.1 783.9zM1150.9 804.7c-48.2 28.7-84.5.5-86.1-.7-4.1-3.3-10-2.7-13.3 1.4-3.3 4.1-2.7 10 1.4 13.3 1.3 1.1 22.5 17.9 54.5 17.9 15.5 0 33.6-4 53.2-15.6 4.5-2.7 6-8.5 3.3-13C1161.2 803.5 1155.4 802 1150.9 804.7zM373.2 1103.4c-5.2.7-8.8 5.5-8.1 10.7.7 5.2 5.5 8.8 10.7 8.1 33.2-4.7 68.3 7.4 91.7 31.5 1.9 1.9 4.3 2.9 6.8 2.9 2.4 0 4.8-.9 6.6-2.7 3.8-3.6 3.8-9.6.2-13.4C453.6 1112.1 412.3 1097.9 373.2 1103.4zM1673.1 1561.6c0 .6.1 1.2.2 1.7 0 0 0 0 0 .1.1.6.3 1.1.5 1.7 0 0 0 .1 0 .1.2.5.5 1.1.8 1.5 0 0 0 .1.1.1.3.5.7 1 1.2 1.4 0 0 0 0 0 0 0 0 0 0 0 0 .4.4.9.8 1.4 1.2 0 0 .1.1.1.1.5.3 1 .6 1.5.8 0 0 .1 0 .1.1.5.2 1.1.4 1.6.5 0 0 .1 0 .1 0 .6.1 1.1.2 1.7.2h321.4c.6 0 1.2-.1 1.8-.2 0 0 0 0 0 0 .6-.1 1.2-.3 1.8-.5 0 0 0 0 0 0 .6-.2 1.1-.5 1.6-.9 0 0 0 0 .1 0 .5-.4 1-.8 1.4-1.2 0 0 0 0 0 0 0 0 0-.1.1-.1.4-.4.8-.9 1.1-1.4 0-.1.1-.1.1-.2.3-.5.5-1 .7-1.5 0-.1 0-.1.1-.2.2-.5.3-1 .4-1.6 0-.1 0-.1 0-.2.1-.5.1-1 .1-1.5v-201.9c0-.4 0-.7-.1-1 0 0 0-.1 0-.1-.1-.6-.2-1.1-.4-1.7 0 0 0 0 0-.1-.2-.6-.4-1.1-.7-1.6 0 0 0-.1 0-.1-.3-.5-.6-1-1-1.5 0 0 0 0 0 0 0 0 0 0-.1-.1-.4-.4-.8-.8-1.3-1.2-.1 0-.1-.1-.2-.1-.4-.3-.9-.6-1.4-.9-.1 0-.1-.1-.2-.1-.5-.2-1-.4-1.5-.6-.1 0-.1 0-.2 0-.5-.1-1.1-.2-1.6-.3-.1 0-.1 0-.2 0-.2 0-.4 0-.6 0h-321.4c-.1 0-.2 0-.3 0-.1 0-.2 0-.3 0-.5 0-1.1.1-1.6.2-.1 0-.1 0-.2.1-.5.1-1 .3-1.5.5-.1 0-.1.1-.2.1-.5.2-1 .5-1.4.8-.1 0-.1.1-.2.1-.4.3-.9.7-1.2 1.1 0 0-.1.1-.1.1 0 0 0 .1-.1.1-.4.4-.7.9-1 1.3 0 .1-.1.1-.1.2-.3.5-.5 1-.7 1.5 0 .1-.1.1-.1.2-.2.5-.3 1-.4 1.6 0 .1 0 .2 0 .2-.1.4-.1.8-.1 1.2L1673.1 1561.6C1673.1 1561.5 1673.1 1561.5 1673.1 1561.6 1673.1 1561.5 1673.1 1561.6 1673.1 1561.6zM1705.3 1552l83.2-83.7 43.9 39.8c1.8 1.6 4.1 2.5 6.4 2.5 2.2 0 4.4-.8 6.2-2.3l47.5-40.7 88 84.5H1705.3zM1994.5 1539.3l-87.7-84.1 87.7-75.1V1539.3zM1978.3 1369l-139.4 119.4L1707.1 1369H1978.3zM1692 1380.9l82.4 74.7-82.4 82.9V1380.9zM1968.3 596.5c-7.5-23.6-23.5-46.3-47.4-67.5-41.9-37-96.2-48.4-148.6-59.5-7.7-1.6-15.6-3.3-23.2-5-46.8-10.4-132.3-42.2-156.4-95.5-9.9-22-8-45.9 5.9-71 2.5-4.6.9-10.3-3.7-12.9-4.6-2.5-10.3-.9-12.9 3.7-16.9 30.6-19.1 60.2-6.5 87.9 12 26.6 37.1 50.5 74.5 70.9 27.8 15.2 62.5 28.1 95 35.3 7.7 1.7 15.7 3.4 23.4 5 50.1 10.5 101.8 21.4 140 55.1 21.3 18.8 35.4 38.7 41.9 59 4.8 15.1 5.2 30.8 1.4 44.6-28.3-15.3-59.1-23.9-90.3-25.2-22.3-.9-38.9 2.5-52.1 10.8-21.2 13.2-27.1 36.2-22.1 52.1 7.1 22.5 32.7 34.5 70.3 33 30.5-1.3 73.9-6.6 98.5-37.8 1.4-1.8 2.7-3.7 4-5.6 31.3 21.2 56.9 51 71.1 85.7 27.7 67.3 12.3 151.5-37.3 204.7-3.6 3.8-3.4 9.8.5 13.4 1.8 1.7 4.1 2.5 6.5 2.5 2.5 0 5.1-1 6.9-3 27-28.9 45.1-65.8 52.6-106.6 7.4-40.8 3.4-81.7-11.6-118.3-15-36.6-40.9-68.5-74.9-92.2-1.8-1.2-3.6-2.5-5.4-3.6C1974.6 638.4 1974.8 616.9 1968.3 596.5zM1941.1 668c-19.8 25.1-57.7 29.5-84.5 30.6-13.4.5-45.3-.2-51.5-19.8-3.6-11.2 4.4-24.2 14.1-30.3 8.8-5.5 20.1-8.1 35.4-8.1 1.9 0 3.9 0 6 .1 29 1.2 57.6 9.7 83.2 23.8C1943 665.6 1942.1 666.8 1941.1 668zM815.5 382.9c0-68.3-55.6-123.9-123.9-123.9s-123.9 55.6-123.9 123.9 55.6 123.9 123.9 123.9S815.5 451.2 815.5 382.9zM586.6 382.9c0-57.9 47.1-105 105-105 57.9 0 105 47.1 105 105s-47.1 105-105 105C633.7 487.9 586.6 440.8 586.6 382.9z"></path>
  </g>
</svg>
