<svg xmlns="http://www.w3.org/2000/svg" viewBox="0 0 500 500"><g id="freepik--background-complete--inject-201"><rect y="382.4" width="500" height="0.25" style="fill:#ebebeb"></rect><rect x="416.78" y="398.49" width="33.12" height="0.25" style="fill:#ebebeb"></rect><rect x="322.53" y="401.21" width="8.69" height="0.25" style="fill:#ebebeb"></rect><rect x="396.59" y="389.21" width="19.19" height="0.25" style="fill:#ebebeb"></rect><rect x="52.46" y="390.89" width="43.19" height="0.25" style="fill:#ebebeb"></rect><rect x="104.56" y="390.89" width="6.33" height="0.25" style="fill:#ebebeb"></rect><rect x="131.47" y="395.11" width="93.68" height="0.25" style="fill:#ebebeb"></rect><path d="M237,337.8H43.91a5.71,5.71,0,0,1-5.7-5.71V60.66A5.71,5.71,0,0,1,43.91,55H237a5.71,5.71,0,0,1,5.71,5.71V332.09A5.71,5.71,0,0,1,237,337.8ZM43.91,55.2a5.46,5.46,0,0,0-5.45,5.46V332.09a5.46,5.46,0,0,0,5.45,5.46H237a5.47,5.47,0,0,0,5.46-5.46V60.66A5.47,5.47,0,0,0,237,55.2Z" style="fill:#ebebeb"></path><path d="M453.31,337.8H260.21a5.72,5.72,0,0,1-5.71-5.71V60.66A5.72,5.72,0,0,1,260.21,55h193.1A5.71,5.71,0,0,1,459,60.66V332.09A5.71,5.71,0,0,1,453.31,337.8ZM260.21,55.2a5.47,5.47,0,0,0-5.46,5.46V332.09a5.47,5.47,0,0,0,5.46,5.46h193.1a5.47,5.47,0,0,0,5.46-5.46V60.66a5.47,5.47,0,0,0-5.46-5.46Z" style="fill:#ebebeb"></path><rect x="222.19" y="113.96" width="91.95" height="207.14" style="fill:#ebebeb"></rect><rect x="168.48" y="175.02" width="199.37" height="85.01" transform="translate(485.69 -50.63) rotate(90)" style="fill:#fafafa"></rect><rect x="267.18" y="116.85" width="1.95" height="202.31" style="fill:#f5f5f5"></rect><rect x="220.07" y="111.27" width="96.19" height="9.75" style="fill:#e0e0e0"></rect><rect x="220.07" y="122.09" width="96.19" height="1.16" style="fill:#f5f5f5"></rect><rect x="220.07" y="124.72" width="96.19" height="1.16" style="fill:#f5f5f5"></rect><rect x="220.07" y="127.34" width="96.19" height="1.16" style="fill:#f5f5f5"></rect><rect x="220.07" y="129.96" width="96.19" height="1.16" style="fill:#f5f5f5"></rect><rect x="220.07" y="132.58" width="96.19" height="1.16" style="fill:#f5f5f5"></rect><rect x="220.07" y="135.21" width="96.19" height="1.16" style="fill:#f5f5f5"></rect><rect x="220.07" y="137.83" width="96.19" height="1.16" style="fill:#f5f5f5"></rect><rect x="220.07" y="140.45" width="96.19" height="1.16" style="fill:#f5f5f5"></rect><rect x="220.07" y="143.07" width="96.19" height="1.16" style="fill:#f5f5f5"></rect><rect x="220.07" y="145.7" width="96.19" height="1.16" style="fill:#f5f5f5"></rect><rect x="220.07" y="148.32" width="96.19" height="1.16" style="fill:#f5f5f5"></rect><rect x="220.07" y="150.94" width="96.19" height="1.16" style="fill:#f5f5f5"></rect><rect x="220.07" y="153.56" width="96.19" height="1.16" style="fill:#f5f5f5"></rect><rect x="220.07" y="156.18" width="96.19" height="1.16" style="fill:#f5f5f5"></rect><rect x="220.07" y="158.81" width="96.19" height="1.16" style="fill:#f5f5f5"></rect><rect x="220.07" y="161.43" width="96.19" height="1.16" style="fill:#f5f5f5"></rect><rect x="220.07" y="164.05" width="96.19" height="1.16" style="fill:#f5f5f5"></rect><rect x="220.07" y="166.67" width="96.19" height="1.16" style="fill:#f5f5f5"></rect><rect x="331.05" y="113.96" width="91.95" height="207.14" style="fill:#ebebeb"></rect><rect x="277.34" y="175.02" width="199.37" height="85.01" transform="translate(594.55 -159.49) rotate(90)" style="fill:#fafafa"></rect><rect x="376.04" y="116.85" width="1.95" height="202.31" style="fill:#f5f5f5"></rect><rect x="328.93" y="111.27" width="96.19" height="9.75" style="fill:#e0e0e0"></rect><rect x="328.93" y="122.09" width="96.19" height="1.16" style="fill:#f5f5f5"></rect><rect x="328.93" y="124.72" width="96.19" height="1.16" style="fill:#f5f5f5"></rect><rect x="328.93" y="127.34" width="96.19" height="1.16" style="fill:#f5f5f5"></rect><rect x="328.93" y="129.96" width="96.19" height="1.16" style="fill:#f5f5f5"></rect><rect x="328.93" y="132.58" width="96.19" height="1.16" style="fill:#f5f5f5"></rect><rect x="328.93" y="135.21" width="96.19" height="1.16" style="fill:#f5f5f5"></rect><rect x="328.93" y="137.83" width="96.19" height="1.16" style="fill:#f5f5f5"></rect><rect x="328.93" y="140.45" width="96.19" height="1.16" style="fill:#f5f5f5"></rect><rect x="328.93" y="143.07" width="96.19" height="1.16" style="fill:#f5f5f5"></rect><rect x="328.93" y="145.7" width="96.19" height="1.16" style="fill:#f5f5f5"></rect><rect x="328.93" y="148.32" width="96.19" height="1.16" style="fill:#f5f5f5"></rect><rect x="328.93" y="150.94" width="96.19" height="1.16" style="fill:#f5f5f5"></rect><rect x="328.93" y="153.56" width="96.19" height="1.16" style="fill:#f5f5f5"></rect><rect x="328.93" y="156.18" width="96.19" height="1.16" style="fill:#f5f5f5"></rect><rect x="328.93" y="158.81" width="96.19" height="1.16" style="fill:#f5f5f5"></rect><rect x="328.93" y="161.43" width="96.19" height="1.16" style="fill:#f5f5f5"></rect><rect x="328.93" y="164.05" width="96.19" height="1.16" style="fill:#f5f5f5"></rect><rect x="328.93" y="166.67" width="96.19" height="1.16" style="fill:#f5f5f5"></rect><rect x="84.8" y="130.1" width="89.91" height="115.7" transform="translate(317.7 58.2) rotate(90)" style="fill:#e0e0e0"></rect><rect x="73.5" y="144.6" width="112.49" height="86.7" transform="translate(259.5 375.9) rotate(180)" style="fill:#ebebeb"></rect><rect x="127.36" y="160.26" width="1" height="12.09" style="fill:#e0e0e0"></rect><polygon points="100.87 211.28 99.87 211.28 99.87 171.85 151.9 171.85 151.9 194.68 150.9 194.68 150.9 172.85 100.87 172.85 100.87 211.28" style="fill:#e0e0e0"></polygon><polygon points="166.75 206.98 165.75 206.98 165.75 195.18 138.7 195.18 138.7 206.56 137.7 206.56 137.7 194.18 166.75 194.18 166.75 206.98" style="fill:#e0e0e0"></polygon><rect x="114.96" y="155.82" width="25.81" height="8.88" style="fill:#f5f5f5"></rect><rect x="139.48" y="177.14" width="24.6" height="9.65" style="fill:#f5f5f5"></rect><rect x="129.75" y="201.59" width="16.89" height="9.96" style="fill:#f5f5f5"></rect><rect x="157.21" y="203.2" width="18.09" height="7.56" style="fill:#f5f5f5"></rect><rect x="88.5" y="179.18" width="27.95" height="12.89" style="fill:#f5f5f5"></rect><rect x="91.45" y="206.56" width="17.85" height="9.42" style="fill:#f5f5f5"></rect><rect x="125.14" y="169.94" width="5.45" height="5.45" transform="translate(159.54 -39.84) rotate(45)" style="fill:#f5f5f5"></rect><rect x="148.68" y="191.96" width="5.45" height="5.45" transform="translate(182 -50.04) rotate(45)" style="fill:#f5f5f5"></rect><circle cx="129.75" cy="114.04" r="16.3" style="fill:#e0e0e0"></circle><circle cx="129.75" cy="114.04" r="13.86" style="fill:#f0f0f0"></circle><polyline points="130.4 104.53 130.4 114.22 136.83 110.59" style="fill:#f0f0f0"></polyline><path d="M130.4,115.23a1,1,0,0,1-.5-.14,1,1,0,0,1-.5-.86v-9.7a1,1,0,0,1,2,0v8l4.93-2.79a1,1,0,0,1,1.37.38,1,1,0,0,1-.38,1.36l-6.42,3.64A1.13,1.13,0,0,1,130.4,115.23Z" style="fill:#e0e0e0"></path></g><g id="freepik--Shadow--inject-201"><ellipse id="freepik--path--inject-201" cx="250" cy="416.24" rx="193.89" ry="11.32" style="fill:#f5f5f5"></ellipse></g><g id="freepik--Plant--inject-201"><path d="M406.45,383.87c0-.36-1.22-36.06-7-41.7-5.61-5.46-12.08-.2-12.35,0l-.64-.77c.07-.06,7.43-6.06,13.69,0,6.08,5.92,7.27,40.9,7.32,42.38Z" style="fill:#407BFF"></path><path d="M407,390.89c-.05-.43-4-42.9,11.54-60.71l.75.66c-15.23,17.48-11.34,59.53-11.3,60Z" style="fill:#407BFF"></path><path d="M406.46,386.4l-1-.07c0-.48,3-48.24-8.32-58.69l.68-.73C409.52,337.67,406.59,384.41,406.46,386.4Z" style="fill:#407BFF"></path><path d="M407.94,386.37h-1c0-1.32.38-32.3,9.19-37.35a6.26,6.26,0,0,1,5.73-.56c5.34,2.21,8,11.69,8.09,12.09l-1,.27c0-.1-2.62-9.42-7.51-11.44a5.35,5.35,0,0,0-4.85.5C408.31,354.64,408,386.05,407.94,386.37Z" style="fill:#407BFF"></path><path d="M404.52,386.39l-1-.06c0-.24,1.33-24.44-5.2-33-1.57-2.06-3.29-3-5.08-2.91-4.26.29-7.84,6.54-7.87,6.6l-.88-.49c.16-.27,3.88-6.77,8.68-7.11,2.16-.14,4.15,1,5.94,3.3C405.86,361.57,404.58,385.38,404.52,386.39Z" style="fill:#407BFF"></path><path d="M405.86,389.69c-.18-2.36-4.27-57.67,2.94-67.43l.81.59c-7,9.46-2.8,66.19-2.75,66.76Z" style="fill:#407BFF"></path><path d="M423.81,354.09s-4.33,1.6-3,5.36,15,9.95,15,9.95,5.73-5.24.47-13.78S423.92,351.4,423.81,354.09Z" style="fill:#407BFF"></path><path d="M423.81,354.09s-4.33,1.6-3,5.36,15,9.95,15,9.95,5.73-5.24.47-13.78S423.92,351.4,423.81,354.09Z" style="fill:#fff;opacity:0.2;isolation:isolate"></path><path d="M405,346.93s4.6-.19,4.86,3.78-10,14.94-10,14.94-7.3-2.64-5.74-12.54S403.87,344.49,405,346.93Z" style="fill:#407BFF"></path><path d="M405,346.93s4.6-.19,4.86,3.78-10,14.94-10,14.94-7.3-2.64-5.74-12.54S403.87,344.49,405,346.93Z" style="fill:#fff;opacity:0.2;isolation:isolate"></path><path d="M401.12,327.94s3.07-.33,2.82-2.19-11.93-6.68-18.82,1.09c0,0,4.41,7.59,10.79,7.69S401.12,327.94,401.12,327.94Z" style="fill:#407BFF"></path><path d="M401.12,327.94s3.07-.33,2.82-2.19-11.93-6.68-18.82,1.09c0,0,4.41,7.59,10.79,7.69S401.12,327.94,401.12,327.94Z" style="fill:#fff;opacity:0.2;isolation:isolate"></path><path d="M406.84,323.41s-2.78,1.34-3.56-.38,6.59-12,16.55-9c0,0,.27,8.77-5.09,12.23S406.84,323.41,406.84,323.41Z" style="fill:#407BFF"></path><path d="M406.84,323.41s-2.78,1.34-3.56-.38,6.59-12,16.55-9c0,0,.27,8.77-5.09,12.23S406.84,323.41,406.84,323.41Z" style="fill:#fff;opacity:0.2;isolation:isolate"></path><path d="M392.31,352.58s2.12-1.71-.17-2.54-13.5-.6-13.62,10.51c0,0,13.06,2.17,14.68-2.06S392.31,352.58,392.31,352.58Z" style="fill:#407BFF"></path><path d="M392.31,352.58s2.12-1.71-.17-2.54-13.5-.6-13.62,10.51c0,0,13.06,2.17,14.68-2.06S392.31,352.58,392.31,352.58Z" style="fill:#fff;opacity:0.2;isolation:isolate"></path><path d="M418.94,327.67s-2.11-1.71.17-2.55,13.5-.6,13.62,10.51c0,0-13.06,2.17-14.68-2.06S418.94,327.67,418.94,327.67Z" style="fill:#407BFF"></path><path d="M418.94,327.67s-2.11-1.71.17-2.55,13.5-.6,13.62,10.51c0,0-13.06,2.17-14.68-2.06S418.94,327.67,418.94,327.67Z" style="fill:#fff;opacity:0.2;isolation:isolate"></path><path d="M412,336.61s-.19-2.07,1.49-1.26,7.52,7.12,1.46,13.11c0,0-8.15-6-6.68-9.19S412,336.61,412,336.61Z" style="fill:#407BFF"></path><path d="M412,336.61s-.19-2.07,1.49-1.26,7.52,7.12,1.46,13.11c0,0-8.15-6-6.68-9.19S412,336.61,412,336.61Z" style="fill:#fff;opacity:0.2;isolation:isolate"></path><path d="M390.41,339.58s1.27-1.66-.58-1.87-10.17,2-8.23,10.31c0,0,10.12-.76,10.55-4.21S390.41,339.58,390.41,339.58Z" style="fill:#407BFF"></path><path d="M390.41,339.58s1.27-1.66-.58-1.87-10.17,2-8.23,10.31c0,0,10.12-.76,10.55-4.21S390.41,339.58,390.41,339.58Z" style="fill:#fff;opacity:0.2;isolation:isolate"></path><polygon points="424.61 417.16 389.88 417.16 386.13 379.13 428.36 379.13 424.61 417.16" style="fill:#407BFF"></polygon><polygon points="424.61 417.16 389.88 417.16 386.13 379.13 428.36 379.13 424.61 417.16" style="fill:#fff;opacity:0.5;isolation:isolate"></polygon><rect x="384.28" y="374.93" width="45.94" height="8.39" style="fill:#407BFF"></rect><rect x="384.28" y="374.93" width="45.94" height="8.39" style="fill:#fff;opacity:0.2;isolation:isolate"></rect></g><g id="freepik--trash-bin--inject-201"><path d="M116.55,393.3a2.86,2.86,0,0,0-2.29-4.11,6.13,6.13,0,0,0-2-6.7,1.38,1.38,0,0,0-.84-.38,1.63,1.63,0,0,0-.91.4l-5.36,3.85a3.29,3.29,0,0,0-1.07,1.06c-1.09,2.12,2.86,4.84,1.23,6.6-.46.5-1.21.61-1.8,1-1.27.8-1.43,2.55-2,3.93s-2.67,2.46-3.47,1.18c.59-1.33-1.18-2.47-2.62-2.64s-3-.24-3.75-1.6c-2,1.79-6.62-3.19-6.51-5.2-1.68.12-2.83,1.7-3.19,3.27a23.26,23.26,0,0,0-.18,5c0,3.25-1.1,6.44-1,9.69,0,2.54,1,5.35,3.34,6.37a8.74,8.74,0,0,0,3.6.48l26.4-.17A3.87,3.87,0,0,0,116,415c1.19-.62,1.44-2.18,1.55-3.52q.72-8.61,1.42-17.21Z" style="fill:#407BFF"></path><path d="M116.55,393.3a2.86,2.86,0,0,0-2.29-4.11,6.13,6.13,0,0,0-2-6.7,1.38,1.38,0,0,0-.84-.38,1.63,1.63,0,0,0-.91.4l-5.36,3.85a3.29,3.29,0,0,0-1.07,1.06c-1.09,2.12,2.86,4.84,1.23,6.6-.46.5-1.21.61-1.8,1-1.27.8-1.43,2.55-2,3.93s-2.67,2.46-3.47,1.18c.59-1.33-1.18-2.47-2.62-2.64s-3-.24-3.75-1.6c-2,1.79-6.62-3.19-6.51-5.2-1.68.12-2.83,1.7-3.19,3.27a23.26,23.26,0,0,0-.18,5c0,3.25-1.1,6.44-1,9.69,0,2.54,1,5.35,3.34,6.37a8.74,8.74,0,0,0,3.6.48l26.4-.17A3.87,3.87,0,0,0,116,415c1.19-.62,1.44-2.18,1.55-3.52q.72-8.61,1.42-17.21Z" style="fill:#fff;opacity:0.30000000000000004;isolation:isolate"></path><path d="M118.09,365.39h-41l.34,4.14.24,3,.63,7.69.35,4.41.47,5.89.21,2.52.06.75.24,3,.33,4.06.2,2.52.21,2.56.25,3,.18,2.24.2,2.52.09,1.1h37.59l.09-1.1.2-2.51.18-2.26.24-3,.21-2.55.21-2.52.32-4.07.24-2.95.06-.75.2-2.52.48-5.89.36-4.4.62-7.7.24-3,.33-4.14Zm2.47,2.72h0l-.79-.79h.86Zm-.2,2.51-.08,1-3.67,3.67-4.2-4.21,3.76-3.76h.88Zm-1.06,13.11-2.69,2.68-4.2-4.2,4.2-4.2,2.91,2.91Zm-39-2.81h0L83.23,378l4.2,4.2-4.2,4.2-2.68-2.68Zm34.93-4.27-4.2,4.2-4.21-4.2,4.21-4.21Zm-6.61-9.33h4.81l-2.4,2.41Zm1,14.89-4.19,4.2-4.21-4.2,4.21-4.2Zm-14,5.56,4.2-4.2,4.2,4.2L99.92,392Zm2.84,5.56-4.21,4.21-4.2-4.2,4.21-4.2Zm6.93-4.19,4.19,4.2-4.19,4.2-4.21-4.21Zm-5.57-8.29-4.2-4.2,4.2-4.21,4.2,4.21Zm-1.36,1.36-4.2,4.2-4.21-4.2,4.21-4.2Zm-9.77-1.36-4.2-4.2,4.2-4.21,4.2,4.21Zm0,2.72,4.2,4.2L88.79,392l-4.2-4.21ZM93,398.91l-4.2,4.19-4.2-4.19,4.2-4.21Zm1.36,1.35,4.21,4.21-4.2,4.2-4.21-4.2Zm1.37-1.35,4.2-4.21,4.2,4.21-4.2,4.19Zm9.77,1.35,4.19,4.21-4.19,4.2-4.21-4.2Zm5.56,5.57,4.2,4.2-2.72,2.73h-3L106.84,410Zm-4.21-6.92,4.21-4.21,4.2,4.21-4.2,4.19Zm0-11.14,4.21-4.2,4.2,4.2-4.2,4.21Zm2.84-16.69-4.19,4.21-4.21-4.21,3.76-3.76h.89Zm-9.76-1.35-2.4-2.41h4.8Zm-1.36,1.35-4.2,4.21-4.21-4.21,3.77-3.76h.88Zm-7.37-3.76-2.4,2.41-2.4-2.41Zm-7.52,0,3.76,3.76-4.2,4.21-3.66-3.67-.08-1,3.29-3.3Zm-3.6,0-.78.78h0l-.07-.78Zm-.26,7.27,2.06,2.06-1.75,1.75ZM81,388.69l-.16-2h0l1.08,1.08-.92.92Zm.21,2.53,2.07-2.08,4.2,4.2-4.2,4.2-1.7-1.69Zm.62,7.77v-.18l.1.1-.09.08Zm.73,9L82,401.5l1.25-1.24,4.2,4.21-4.2,4.2-.72-.72Zm.39,4.81-.08-1,.41-.4,1.36,1.37ZM84.59,410l4.2-4.2L93,410l-2.72,2.73h-3Zm8.4,2.73,1.37-1.37,1.37,1.37Zm5.45,0L95.72,410l4.2-4.2,4.2,4.2-2.71,2.73Zm5.68,0,1.37-1.37,1.36,1.37Zm12.82,0h-1.69l1.36-1.37.41.4Zm.39-4.81-.72.72-4.2-4.2,4.2-4.21,1.24,1.24Zm.74-9.15V399l-.09-.08.1-.11Zm.25-2.95-1.71,1.69-4.2-4.2,4.2-4.2,2.08,2.08Zm.57-7.16-.92-.92,1.09-1.08ZM120,374.58l-.31,3.83L118,376.65l2.07-2.07Z" style="fill:#407BFF"></path><g style="opacity:0.6000000000000001;isolation:isolate"><path d="M118.09,365.39h-41l.34,4.14.24,3,.63,7.69.35,4.41.47,5.89.21,2.52.06.75.24,3,.33,4.06.2,2.52.21,2.56.25,3,.18,2.24.2,2.52.09,1.1h37.59l.09-1.1.2-2.51.18-2.26.24-3,.21-2.55.21-2.52.32-4.07.24-2.95.06-.75.2-2.52.48-5.89.36-4.4.62-7.7.24-3,.33-4.14Zm2.47,2.72h0l-.79-.79h.86Zm-.2,2.51-.08,1-3.67,3.67-4.2-4.21,3.76-3.76h.88Zm-1.06,13.11-2.69,2.68-4.2-4.2,4.2-4.2,2.91,2.91Zm-39-2.81h0L83.23,378l4.2,4.2-4.2,4.2-2.68-2.68Zm34.93-4.27-4.2,4.2-4.21-4.2,4.21-4.21Zm-6.61-9.33h4.81l-2.4,2.41Zm1,14.89-4.19,4.2-4.21-4.2,4.21-4.2Zm-14,5.56,4.2-4.2,4.2,4.2L99.92,392Zm2.84,5.56-4.21,4.21-4.2-4.2,4.21-4.2Zm6.93-4.19,4.19,4.2-4.19,4.2-4.21-4.21Zm-5.57-8.29-4.2-4.2,4.2-4.21,4.2,4.21Zm-1.36,1.36-4.2,4.2-4.21-4.2,4.21-4.2Zm-9.77-1.36-4.2-4.2,4.2-4.21,4.2,4.21Zm0,2.72,4.2,4.2L88.79,392l-4.2-4.21ZM93,398.91l-4.2,4.19-4.2-4.19,4.2-4.21Zm1.36,1.35,4.21,4.21-4.2,4.2-4.21-4.2Zm1.37-1.35,4.2-4.21,4.2,4.21-4.2,4.19Zm9.77,1.35,4.19,4.21-4.19,4.2-4.21-4.2Zm5.56,5.57,4.2,4.2-2.72,2.73h-3L106.84,410Zm-4.21-6.92,4.21-4.21,4.2,4.21-4.2,4.19Zm0-11.14,4.21-4.2,4.2,4.2-4.2,4.21Zm2.84-16.69-4.19,4.21-4.21-4.21,3.76-3.76h.89Zm-9.76-1.35-2.4-2.41h4.8Zm-1.36,1.35-4.2,4.21-4.21-4.21,3.77-3.76h.88Zm-7.37-3.76-2.4,2.41-2.4-2.41Zm-7.52,0,3.76,3.76-4.2,4.21-3.66-3.67-.08-1,3.29-3.3Zm-3.6,0-.78.78h0l-.07-.78Zm-.26,7.27,2.06,2.06-1.75,1.75ZM81,388.69l-.16-2h0l1.08,1.08-.92.92Zm.21,2.53,2.07-2.08,4.2,4.2-4.2,4.2-1.7-1.69Zm.62,7.77v-.18l.1.1-.09.08Zm.73,9L82,401.5l1.25-1.24,4.2,4.21-4.2,4.2-.72-.72Zm.39,4.81-.08-1,.41-.4,1.36,1.37ZM84.59,410l4.2-4.2L93,410l-2.72,2.73h-3Zm8.4,2.73,1.37-1.37,1.37,1.37Zm5.45,0L95.72,410l4.2-4.2,4.2,4.2-2.71,2.73Zm5.68,0,1.37-1.37,1.36,1.37Zm12.82,0h-1.69l1.36-1.37.41.4Zm.39-4.81-.72.72-4.2-4.2,4.2-4.21,1.24,1.24Zm.74-9.15V399l-.09-.08.1-.11Zm.25-2.95-1.71,1.69-4.2-4.2,4.2-4.2,2.08,2.08Zm.57-7.16-.92-.92,1.09-1.08ZM120,374.58l-.31,3.83L118,376.65l2.07-2.07Z" style="fill:#fff"></path></g><rect x="74.51" y="363.68" width="50.82" height="5.36" rx="1.96" transform="translate(199.84 732.71) rotate(180)" style="fill:#407BFF"></rect><rect x="78.17" y="411.8" width="43.49" height="5.36" rx="1.96" style="fill:#407BFF"></rect></g><g id="freepik--Character--inject-201"><path d="M149.12,398.87l26.12-2.28v-34.3h9.18v34.29l26.22,2.29a4.52,4.52,0,0,1,4.07,4.49v3.48H145.05v-3.48A4.51,4.51,0,0,1,149.12,398.87Z" style="fill:#263238"></path><path d="M149.12,398.87l26.12-2.28v-34.3h9.18v34.29l26.22,2.29a4.52,4.52,0,0,1,4.07,4.49v3.48H145.05v-3.48A4.51,4.51,0,0,1,149.12,398.87Z" style="fill:#fff;opacity:0.1;isolation:isolate"></path><path d="M206.25,411.15a6,6,0,1,0,6-6A6,6,0,0,0,206.25,411.15Z" style="fill:#263238"></path><path d="M153.51,411.15a6,6,0,1,1-6-6A6,6,0,0,1,153.51,411.15Z" style="fill:#263238"></path><path d="M177.73,340.09h4.22a4.06,4.06,0,0,1,4.06,4.06v25.13a0,0,0,0,1,0,0H173.66a0,0,0,0,1,0,0V344.16A4.06,4.06,0,0,1,177.73,340.09Z" transform="translate(359.67 709.38) rotate(180)" style="fill:#263238"></path><path d="M177.73,340.09h4.22a4.06,4.06,0,0,1,4.06,4.06v25.13a0,0,0,0,1,0,0H173.66a0,0,0,0,1,0,0V344.16A4.06,4.06,0,0,1,177.73,340.09Z" transform="translate(359.67 709.38) rotate(180)" style="fill:#fff;opacity:0.2;isolation:isolate"></path><path d="M152.75,272.24s2.83,56.72,15,66.48H154.73s-11.65-19.32-12.52-66.48Z" style="fill:#263238"></path><path d="M152.75,272.24s2.83,56.72,15,66.48H154.73s-11.65-19.32-12.52-66.48Z" style="fill:#fff;opacity:0.1;isolation:isolate"></path><path d="M151.68,334H209.6a4.92,4.92,0,0,1,4.92,4.92v4.48a0,0,0,0,1,0,0H146.77a0,0,0,0,1,0,0v-4.48A4.92,4.92,0,0,1,151.68,334Z" style="fill:#263238"></path><rect x="144.19" y="338.72" width="72.91" height="4.7" rx="1.98" style="fill:#263238"></rect><rect x="144.19" y="338.72" width="72.91" height="4.7" rx="1.98" style="fill:#fff;opacity:0.6000000000000001;isolation:isolate"></rect><path d="M139.92,284.66h20.92c6.14,0,10.56-5.51,9.89-12.31l-.89-9.07c-.67-6.79-6.18-12.3-12.31-12.3H136.6c-6.13,0-10.56,5.51-9.89,12.3l.89,9.07C128.27,279.15,133.79,284.66,139.92,284.66Z" style="fill:#263238"></path><g id="freepik--group--inject-201"><path d="M189.74,242.71c-1.21,3.08-2,5-2,5l-5.5-4.79L169.67,232l15.06-16.31-.51-5.32s10.51-6.68,14.82-3.59C202.36,209.21,193.81,232.3,189.74,242.71Z" style="fill:#407BFF"></path><path d="M189.74,242.71c-1.21,3.08-2,5-2,5l-5.5-4.79L169.67,232l5.79-6.26,6.65-7.2,2.62-2.85-.51-5.32s10.51-6.68,14.82-3.59C202.36,209.21,193.81,232.3,189.74,242.71Z" style="fill:#fff;opacity:0.2"></path><path d="M189.74,242.71c-1.21,3.08-2,5-2,5l-5.5-4.79c-1.06-1.14-2-2.14-2.63-2.92l-.78-3.63A34.16,34.16,0,0,1,189.74,242.71Z" style="opacity:0.2;isolation:isolate"></path><path d="M193,219.59s-11.36,6.51-17.57,6.19l6.65-7.2a20.12,20.12,0,0,1,8.31,1Z" style="opacity:0.2;isolation:isolate"></path><path d="M207.66,301S262,318,274.92,325.8s48.18,64.27,48.18,64.27L311,400.87s-40.85-50.93-45.62-54.24-64.92-17.06-64.92-17.06Z" style="fill:#263238"></path><path d="M207.66,301S262,318,274.92,325.8s48.18,64.27,48.18,64.27L311,400.87s-40.85-50.93-45.62-54.24-64.92-17.06-64.92-17.06Z" style="fill:#fff;opacity:0.30000000000000004"></path><polygon points="326.96 410.92 332.67 404.27 321.44 389.41 315.75 396.06 326.96 410.92" style="fill:#ebb376"></polygon><polygon points="315.75 396.06 321.45 389.42 327.87 397.91 321.92 404.25 315.75 396.06" style="opacity:0.2;isolation:isolate"></polygon><path d="M333.7,403.51s0,0,.06,0,0,0,.06,0a10.31,10.31,0,0,0,2-1.18,2.33,2.33,0,0,0,1-1.35,1.07,1.07,0,0,0-.5-1.05.78.78,0,0,0-.73-.17c-.59.18-1.12,1.08-1.5,1.93a3.23,3.23,0,0,0-.67-2.09.75.75,0,0,0-.95,0,1,1,0,0,0-.49.73c-.16,1.2,1.56,3,1.65,3.08l.09-.12h0l-.09.13s-.07.13-.07.14Zm0-.81c0,.07-.05.13-.07.19-.52-.64-1.33-1.78-1.22-2.49a.57.57,0,0,1,.23-.41l.08-.06c.25-.15.4-.09.49,0A4.16,4.16,0,0,1,333.69,402.7Zm.38.24c.41-1.13,1.1-2.61,1.69-2.79a.39.39,0,0,1,.36.09.75.75,0,0,1,.33.66C336.37,401.47,335.5,402.22,334.07,402.94Z" style="fill:#407BFF"></path><path d="M332.46,403l-7.75,6.06a.61.61,0,0,0-.14.86h0L329,416.4a1.55,1.55,0,0,0,2.16.28c2.67-2.16,3.83-3.32,7.22-6,2.09-1.64,6.37-4.69,8.87-7.38s-.23-5.09-1.53-4.17c-3.08,2.16-8.62,3.4-11.76,3.39A2.44,2.44,0,0,0,332.46,403Z" style="fill:#263238"></path><polygon points="311.9 405.12 327.12 393.31 322.88 386.06 306.44 399.35 311.9 405.12" style="fill:#407BFF"></polygon><polygon points="311.9 405.12 327.12 393.31 322.88 386.06 306.44 399.35 311.9 405.12" style="fill:#fff;opacity:0.2"></polygon><path d="M286.58,390.75s-18.18-65.84-21.19-69.63c-4.91-6.18-52-12.71-52-12.71L201.1,287.12l-45.6,10s4.43,27.47,9.86,35.52,77.1,6.71,81.87,8.27,22.76,53,22.76,53Z" style="fill:#263238"></path><path d="M286.58,390.75s-18.18-65.84-21.19-69.63c-4.91-6.18-52-12.71-52-12.71L201.1,287.12l-45.6,10s4.43,27.47,9.86,35.52,77.1,6.71,81.87,8.27,22.76,53,22.76,53Z" style="fill:#fff;opacity:0.4"></path><path d="M145.38,224v7.28s11.8,1.23,12.86.5l3.92-2.73,25.56-9.49-3.5-9.18L157,224.81Z" style="fill:#ebb376"></path><path d="M145.38,224v7.28s11.8,1.23,12.86.5l3.92-2.73,25.56-9.49-3.5-9.18L157,224.81Z" style="opacity:0.2;isolation:isolate"></path><path d="M289.76,405.51l.06,0a.13.13,0,0,0,.07,0,10.45,10.45,0,0,0,2.28-.44,2.34,2.34,0,0,0,1.42-.94,1.07,1.07,0,0,0-.13-1.16.77.77,0,0,0-.63-.4c-.61,0-1.41.65-2.06,1.33a3.14,3.14,0,0,0,.07-2.19.77.77,0,0,0-.89-.36,1,1,0,0,0-.7.52c-.55,1.08.49,3.34.54,3.46l.12-.08h0l-.13.09s-.11.1-.11.11Zm.27-.77-.13.16c-.29-.78-.66-2.12-.33-2.76a.61.61,0,0,1,.35-.32l.1,0c.29-.06.4.05.46.15A4.19,4.19,0,0,1,290,404.74Zm.28.35c.75-.94,1.9-2.1,2.51-2.07a.37.37,0,0,1,.31.2.74.74,0,0,1,.1.73C293,404.47,291.89,404.88,290.31,405.09Z" style="fill:#407BFF"></path><polygon points="280.95 410.26 288.54 405.87 282.49 387.46 274.92 391.85 280.95 410.26" style="fill:#ebb376"></polygon><polygon points="274.92 391.85 282.5 387.47 285.95 397.99 278.23 401.99 274.92 391.85" style="opacity:0.2;isolation:isolate"></polygon><path d="M288.75,404.65l-9.31,3.15a.63.63,0,0,0-.43.77h0l2,7.52a1.54,1.54,0,0,0,1.94,1c3.24-1.15,4.72-1.86,8.81-3.28,2.51-.85,7.56-2.31,10.81-4s1.47-4.88-.05-4.44c-3.63,1-9.26.35-12.22-.69A2.41,2.41,0,0,0,288.75,404.65Z" style="fill:#263238"></path><polygon points="270.71 399.8 288.98 393.7 287.39 385.46 267.47 392.54 270.71 399.8" style="fill:#407BFF"></polygon><polygon points="270.71 399.8 288.98 393.7 287.39 385.46 267.47 392.54 270.71 399.8" style="fill:#fff;opacity:0.2"></polygon><polygon points="170.55 292.67 154.3 295.62 155.01 299.56 172 296.87 170.55 292.67" style="fill:#263238"></polygon><polygon points="172.67 292.28 174.14 296.53 202.78 291.99 201.1 287.12 172.67 292.28" style="fill:#263238"></polygon><path d="M187.76,291.2l1,2.81a1.59,1.59,0,0,0,1.72,1l4.92-.85a1.09,1.09,0,0,0,.87-1.47l-1-2.81a1.6,1.6,0,0,0-1.73-1l-4.91.85A1.08,1.08,0,0,0,187.76,291.2Z" style="fill:#fff"></path><path d="M153.56,297.15l48.86-8.49c-8.66-43.64-29.17-59.58-29.17-59.58a19.38,19.38,0,0,1-8.31,2.85,162.56,162.56,0,0,0-18.18,2.77,81.88,81.88,0,0,0-11.87,3.3c-1.89,1.27-.89,10.84,11.16,39.06A210.14,210.14,0,0,1,153.56,297.15Z" style="fill:#407BFF"></path><path d="M173.36,229.18l-.11-.1C173.37,229.08,173.4,229.11,173.36,229.18Z" style="fill:#fff;opacity:0.2"></path><path d="M202.42,288.66l-48.86,8.49a208.31,208.31,0,0,0-7.51-20.09c-3-7-5.3-12.86-7.05-17.72a111,111,0,0,1-4.15-13.61c-1.07-4.9-.8-7.16,0-7.73a82.23,82.23,0,0,1,11.87-3.3,162.39,162.39,0,0,1,18.17-2.77c3.78-.2,8.11-2.28,8.43-2.75C175,230.5,194.12,246.89,202.42,288.66Z" style="fill:#fff;opacity:0.2"></path><polygon points="176.74 247.86 185.28 246.37 189.31 256.04 185.71 259.69 180.35 258.31 176.74 247.86" style="fill:#407BFF"></polygon><path d="M173,264.93c-4.76,2.46-18,4.71-34-5.59a111,111,0,0,1-4.15-13.61c7.36-12.47,45.05,14.63,45.05,14.63Z" style="opacity:0.2;isolation:isolate"></path><path d="M145.38,235.21l15,2.33,1.76-5s-3.64-1.75-3.07-3.61l-12.22-8.34C148.57,226.1,148.36,230.53,145.38,235.21Z" style="fill:#ebb376"></path><path d="M151.85,224l7.23,4.94v0a2.64,2.64,0,0,1-4,1.88,6.46,6.46,0,0,1-3-3.67A8.57,8.57,0,0,1,151.85,224Z" style="opacity:0.2;isolation:isolate"></path><path d="M148.68,204.24c-1.66,3.58,1.56,6,10.93,7.27.57-4.89-2.91-11.63-5.93-12S150.13,201.12,148.68,204.24Z" style="fill:#263238"></path><path d="M139.77,216.71c4.42,6.67,6.67,10.79,12.21,12.32,8.34,2.3,15-5.8,12.7-13.66-2.11-7.05-9-16.78-17.34-15.61A10.9,10.9,0,0,0,138,212,10.73,10.73,0,0,0,139.77,216.71Z" style="fill:#ebb376"></path><path d="M155.65,210.41a23,23,0,0,0,5.48,3.26,3.76,3.76,0,0,1-2.41,2.06Z" style="fill:#d58745"></path><path d="M149.92,208.57a.36.36,0,0,1,.48.47,3.79,3.79,0,0,1-2.52,2.42.38.38,0,0,1-.45-.26v0a.4.4,0,0,1,.28-.46h0a3,3,0,0,0,2-1.92A.4.4,0,0,1,149.92,208.57Z" style="fill:#263238"></path><path d="M155.71,204.24a.4.4,0,0,1,.41-.05,3,3,0,0,0,2.75,0,.39.39,0,0,1,.4.66,3.84,3.84,0,0,1-3.49,0,.38.38,0,0,1-.17-.5h0A.41.41,0,0,1,155.71,204.24Z" style="fill:#263238"></path><path d="M139,209c3.87-.76,5.49,2.95,4.45,12.34-4.89-.61-10.62-5.59-10.27-8.63S135.6,209.66,139,209Z" style="fill:#263238"></path><path d="M139.67,224.14a7.58,7.58,0,0,0,5.41,2.13c2.67-.07,3.21-2.64,1.82-4.75-1.26-1.9-4.16-4.14-6.52-3.05S137.9,222.42,139.67,224.14Z" style="fill:#ebb376"></path><path d="M152,226.16s-1.43-6.8.09-8.12,5.37-.21,5.37-.21l-.35,1.08s-2.89-.55-3.69-.2-.82,5.23.46,6a4.36,4.36,0,0,0,3.07.14l.24-2.57L159,222l.76,2.54a4.56,4.56,0,0,0,2.69-2.13c.6-1.5-1.35-4.68-1.58-4.79a9.52,9.52,0,0,0-2.2.86l-.1-1s2.07-2.09,3-1.64,3.37,5.81,2.64,7.2a8,8,0,0,1-5.4,4.47C155.36,228.45,152.31,227.94,152,226.16Z" style="opacity:0.5;isolation:isolate"></path><path d="M159.16,219.8s-4.62-.75-4.93.57S157.58,222.51,159.16,219.8Z" style="fill:#263238"></path><path d="M150.88,213.28a.3.3,0,0,1-.15-.05.25.25,0,0,1,0-.35c0-.06,1.1-1.47,2.34-1.25a.26.26,0,0,1,.16.4l-.77,1.07a.25.25,0,0,1-.35.05.24.24,0,0,1-.06-.35l.48-.66a3,3,0,0,0-1.4,1A.23.23,0,0,1,150.88,213.28Z" style="fill:#263238"></path><path d="M158.77,209.61h0l-1.09-.05a.28.28,0,0,1-.17-.09.2.2,0,0,1-.06-.18,1.31,1.31,0,0,1,1.36-1.2.23.23,0,0,1,.26.24.26.26,0,0,1-.25.26.83.83,0,0,0-.81.48l.79,0a.25.25,0,0,1,.24.26A.26.26,0,0,1,158.77,209.61Z" style="fill:#263238"></path><path d="M142,211.86s-2.55-5.69,0-7.7c0,0,11.06-.92,11.79-2.26s1.7-6.44-1.34-8a11.55,11.55,0,0,0-10.94,0s2.12-.49,2.58.36a13.27,13.27,0,0,0-11.57,9.92c-2.8,9.53,3.16,11,3.16,11Z" style="fill:#263238"></path><path d="M153.58,205.72h-.08a.25.25,0,0,1-.15-.32,3.27,3.27,0,0,0-.67-3.67c-.16.79-.8,2.31-3.45,3a.25.25,0,0,1-.31-.17.25.25,0,0,1,.17-.31c3.2-.88,3.14-2.94,3.14-3a.25.25,0,0,1,.12-.23.23.23,0,0,1,.26,0,3.74,3.74,0,0,1,1.21,4.54A.26.26,0,0,1,153.58,205.72Z" style="fill:#263238"></path><path d="M146.53,231.86a68.84,68.84,0,0,0,14.06,4.53,12.86,12.86,0,0,0-1-6.09l6.87,2.09s1.35,4.83.33,7.62l-5.23-2.61-4.5,5.13s-10.54-2.14-13-7.06Z" style="fill:#407BFF"></path><path d="M136.42,240.2c-8.88,5.75,21.59,25,31.86,25.18s41,.53,41,.53l2.22,1.31s11.73,1.24,12.74,0,3.84-10,3.84-10-13.14-1.78-17.79,2.48c0,0-38.13-2.32-39.27-2.78S136.42,240.2,136.42,240.2Z" style="fill:#ebb376"></path><polygon points="183.02 209.36 186.38 221.23 190.42 219.59 187.72 208.54 183.02 209.36" style="fill:#407BFF"></polygon><polygon points="183.02 209.36 186.38 221.23 190.42 219.59 187.72 208.54 183.02 209.36" style="fill:#fff;opacity:0.4"></polygon><polygon points="213.41 308.41 197.36 306.6 211.69 305.44 213.41 308.41" style="opacity:0.2;isolation:isolate"></polygon><path d="M134.89,238s-4,5-1.64,10.29,27.24,17.38,27.24,17.38l8-10.91S141.05,235.18,134.89,238Z" style="fill:#407BFF"></path><path d="M134.89,238s-4,5-1.64,10.29,27.24,17.38,27.24,17.38l8-10.91S141.05,235.18,134.89,238Z" style="fill:#fff;opacity:0.2"></path><polygon points="159.76 265.67 168.29 253.99 171.84 256.18 165.8 268.4 159.76 265.67" style="fill:#407BFF"></polygon><polygon points="159.76 265.67 168.29 253.99 171.84 256.18 165.8 268.4 159.76 265.67" style="fill:#fff;opacity:0.4"></polygon></g></g><g id="freepik--Table--inject-201"><polygon points="364.79 265.36 342.8 265.9 340.63 265.95 346.11 238.12 360.65 238.12 362.4 240.07 358.91 253.9 364.79 265.36" style="fill:#263238"></polygon><polygon points="351.02 247.9 355.68 265.95 342.8 265.9 347.89 240.07 362.4 240.07 358.91 253.9 355.68 247.9 351.02 247.9" style="fill:#fff;opacity:0.4;isolation:isolate"></polygon><polygon points="319.76 265.54 318.95 262.49 285.76 262.49 270.48 264.01 269.89 265.54 319.76 265.54" style="fill:#263238"></polygon><polygon points="285.76 262.49 285.76 265.54 319.76 265.54 318.95 262.49 285.76 262.49" style="opacity:0.4;isolation:isolate"></polygon><path d="M274,247.87a2.61,2.61,0,0,0,2.64,2.92h50.84a3.26,3.26,0,0,0,3.18-2.92l3-32.55a3,3,0,0,0-.06-.95,2.61,2.61,0,0,0-2.57-2H280.19a3.27,3.27,0,0,0-3.18,2.92Z" style="fill:#263238"></path><path d="M276.81,250.79h50.66a3.26,3.26,0,0,0,3.18-2.92l3-32.55a3,3,0,0,0-.06-.95H282.94a3.28,3.28,0,0,0-3.18,2.93l-3,32.55A2.65,2.65,0,0,0,276.81,250.79Z" style="opacity:0.4;isolation:isolate"></path><polygon points="311.74 230.83 301.22 230.83 304.02 260.94 287.39 263.44 287.39 265.54 322.42 265.54 322.42 263.44 315.24 260.94 311.74 230.83" style="fill:#263238"></polygon><polygon points="301.22 230.83 309.01 265.06 315.24 264.88 311.74 230.83 301.22 230.83" style="fill:#fff;opacity:0.1;isolation:isolate"></polygon><polygon points="270.68 255.78 270.68 256.47 273.06 257.41 270.68 257.41 270.68 259.03 272.73 259.03 274.89 260.44 273.27 260.44 275.43 261.7 273.27 261.7 273.27 264.92 235.09 264.93 235.09 263.13 233.65 261.7 235.41 261.7 235.41 257.68 232.28 257.68 232.28 256.33 230.72 256.33 230.72 255.78 270.68 255.78" style="fill:#407BFF"></polygon><polygon points="270.68 255.78 270.68 256.47 273.06 257.41 270.68 257.41 270.68 259.03 272.73 259.03 274.89 260.44 273.27 260.44 275.43 261.7 273.27 261.7 273.27 264.92 235.09 264.93 235.09 263.13 233.65 261.7 235.41 261.7 235.41 257.68 232.28 257.68 232.28 256.33 230.72 256.33 230.72 255.78 270.68 255.78" style="fill:#fff;opacity:0.9;isolation:isolate"></polygon><polygon points="270.68 255.78 270.68 256.47 273.06 257.41 270.68 257.41 270.68 259.03 272.73 259.03 274.89 260.44 273.27 260.44 275.43 261.7 273.27 261.7 273.27 264.92 252.48 264.93 252.48 263.13 251.05 261.7 252.8 261.7 252.8 257.68 249.67 257.68 249.67 256.33 248.11 256.33 248.11 255.78 270.68 255.78" style="opacity:0.1;isolation:isolate"></polygon><polygon points="235.41 257.68 252.8 257.68 252.88 258.9 235.41 257.68" style="opacity:0.1;isolation:isolate"></polygon><polygon points="232.28 256.33 249.67 256.33 232.28 256.94 232.28 256.33" style="opacity:0.1;isolation:isolate"></polygon><polygon points="235.41 261.7 252.8 261.7 235.41 261.06 235.41 261.7" style="opacity:0.1;isolation:isolate"></polygon><polygon points="235.09 263.13 252.48 263.13 252.48 263.8 235.09 263.13" style="opacity:0.1;isolation:isolate"></polygon><polygon points="270.68 256.47 252.8 256.33 270.68 255.93 270.68 256.47" style="opacity:0.1;isolation:isolate"></polygon><polygon points="270.68 257.41 252.48 257.41 270.68 258.02 270.68 257.41" style="opacity:0.1;isolation:isolate"></polygon><polygon points="273.27 260.44 253.07 260.44 253.07 261.06 273.27 260.44" style="opacity:0.1;isolation:isolate"></polygon><polygon points="273.27 261.7 258.63 261.7 273.27 262.1 273.27 261.7" style="opacity:0.1;isolation:isolate"></polygon><polygon points="299.52 417.16 305.34 417.16 315.81 271.47 308.08 271.47 299.52 417.16" style="fill:#263238"></polygon><polygon points="299.51 417.16 305.34 417.16 315.3 278.7 315.81 271.7 308.08 271.7 307.66 278.7 299.51 417.16" style="fill:#fff;opacity:0.1;isolation:isolate"></polygon><polygon points="307.66 278.36 315.3 278.36 315.81 271.7 308.08 271.7 307.66 278.36" style="opacity:0.2;isolation:isolate"></polygon><polygon points="256.78 417.16 262.6 417.16 263.55 271.47 255.82 271.47 256.78 417.16" style="fill:#263238"></polygon><polygon points="255.82 271.7 255.97 295.21 256.77 417.16 262.6 417.16 263.4 295.21 263.55 271.7 255.82 271.7" style="fill:#fff;opacity:0.1;isolation:isolate"></polygon><polygon points="255.82 271.7 255.97 295.47 263.4 295.47 263.55 271.7 255.82 271.7" style="opacity:0.2;isolation:isolate"></polygon><polygon points="194.94 417.16 200.77 417.16 211.23 271.47 203.5 271.47 194.94 417.16" style="fill:#263238"></polygon><polygon points="194.94 417.16 200.77 417.16 210.72 278.7 211.23 271.7 203.5 271.7 203.09 278.7 194.94 417.16" style="fill:#fff;opacity:0.1;isolation:isolate"></polygon><polygon points="203.09 278.36 210.72 278.36 211.23 271.7 203.5 271.7 203.09 278.36" style="opacity:0.2;isolation:isolate"></polygon><polygon points="366.14 417.16 371.97 417.16 363.4 271.47 355.68 271.47 366.14 417.16" style="fill:#263238"></polygon><polygon points="355.68 271.7 356.19 278.7 366.15 417.16 371.96 417.16 363.83 278.7 363.41 271.7 355.68 271.7" style="fill:#fff;opacity:0.1;isolation:isolate"></polygon><polygon points="363.41 271.7 355.68 271.7 356.19 278.36 363.83 278.36 363.41 271.7" style="opacity:0.2;isolation:isolate"></polygon><path d="M199.51,267.82H367.4a2.13,2.13,0,0,1,2.13,2.13v5.17a0,0,0,0,1,0,0H197.38a0,0,0,0,1,0,0v-5.17A2.13,2.13,0,0,1,199.51,267.82Z" transform="translate(566.91 542.94) rotate(180)" style="fill:#407BFF"></path><path d="M199.51,267.82H367.4a2.13,2.13,0,0,1,2.13,2.13v5.17a0,0,0,0,1,0,0H197.38a0,0,0,0,1,0,0v-5.17A2.13,2.13,0,0,1,199.51,267.82Z" transform="translate(566.91 542.94) rotate(180)" style="fill:#fff;opacity:0.4;isolation:isolate"></path><rect x="197.38" y="267.82" width="172.15" height="3.65" transform="translate(566.91 539.29) rotate(180)" style="opacity:0.2;isolation:isolate"></rect><path d="M193.77,268.77H373.14a2.05,2.05,0,0,0,2.06-2h0a2.06,2.06,0,0,0-2.06-2.06H193.77a2.06,2.06,0,0,0-2.06,2.06h0A2.05,2.05,0,0,0,193.77,268.77Z" style="fill:#407BFF"></path><path d="M193.77,268.77H373.14a2.05,2.05,0,0,0,2.06-2h0a2.06,2.06,0,0,0-2.06-2.06H193.77a2.06,2.06,0,0,0-2.06,2.06h0A2.05,2.05,0,0,0,193.77,268.77Z" style="fill:#fff;opacity:0.4;isolation:isolate"></path><polygon points="265.68 246.78 265.68 247.47 268.06 248.41 265.68 248.41 265.68 250.03 267.73 250.03 269.89 251.44 268.27 251.44 270.43 252.7 268.27 252.7 268.27 255.91 230.09 255.93 230.09 254.13 228.65 252.7 230.41 252.7 230.41 248.68 227.28 248.68 227.28 247.33 225.72 247.33 225.72 246.78 265.68 246.78" style="fill:#407BFF"></polygon><polygon points="265.68 246.78 265.68 247.47 268.06 248.41 265.68 248.41 265.68 250.03 267.73 250.03 269.89 251.44 268.27 251.44 270.43 252.7 268.27 252.7 268.27 255.91 230.09 255.93 230.09 254.13 228.65 252.7 230.41 252.7 230.41 248.68 227.28 248.68 227.28 247.33 225.72 247.33 225.72 246.78 265.68 246.78" style="fill:#fff;opacity:0.9;isolation:isolate"></polygon><polygon points="265.68 246.78 265.68 247.47 268.06 248.41 265.68 248.41 265.68 250.03 267.73 250.03 269.89 251.44 268.27 251.44 270.43 252.7 268.27 252.7 268.27 255.91 247.48 255.93 247.48 254.13 246.05 252.7 247.8 252.7 247.8 248.68 244.67 248.68 244.67 247.33 243.11 247.33 243.11 246.78 265.68 246.78" style="opacity:0.1;isolation:isolate"></polygon><polygon points="230.41 248.68 247.8 248.68 247.88 249.9 230.41 248.68" style="opacity:0.1;isolation:isolate"></polygon><polygon points="227.28 247.33 244.67 247.33 227.28 247.94 227.28 247.33" style="opacity:0.1;isolation:isolate"></polygon><polygon points="230.41 252.7 247.8 252.7 230.41 252.06 230.41 252.7" style="opacity:0.1;isolation:isolate"></polygon><polygon points="230.09 254.13 247.48 254.13 247.48 254.8 230.09 254.13" style="opacity:0.1;isolation:isolate"></polygon><polygon points="265.68 247.47 247.8 247.33 265.68 246.93 265.68 247.47" style="opacity:0.1;isolation:isolate"></polygon><polygon points="265.68 248.41 247.48 248.41 265.68 249.02 265.68 248.41" style="opacity:0.1;isolation:isolate"></polygon><polygon points="268.27 251.44 248.07 251.44 248.07 252.06 268.27 251.44" style="opacity:0.1;isolation:isolate"></polygon><polygon points="268.27 252.7 253.63 252.7 268.27 253.1 268.27 252.7" style="opacity:0.1;isolation:isolate"></polygon></g><g id="freepik--speech-bubble--inject-201"><path d="M221,113.79c-26.53,0-48,16.74-48,37.38,0,12.51,7.91,23.57,20,30.36-2.54,4.33-7.68,10.38-17.53,13.7,0,0,14.84,0,27.1-9.54A59.9,59.9,0,0,0,221,188.55c26.53,0,48-16.74,48-37.38S247.57,113.79,221,113.79Z" style="fill:#407BFF"></path><path d="M221,113.79c-26.53,0-48,16.74-48,37.38,0,12.51,7.91,23.57,20,30.36-2.54,4.33-7.68,10.38-17.53,13.7,0,0,14.84,0,27.1-9.54A59.9,59.9,0,0,0,221,188.55c26.53,0,48-16.74,48-37.38S247.57,113.79,221,113.79Z" style="fill:#fff;opacity:0.7000000000000001"></path><rect x="198.59" y="143.49" width="5.8" height="16.77" style="fill:#407BFF"></rect><rect x="207.59" y="143.49" width="5.8" height="16.77" style="opacity:0.2;isolation:isolate"></rect><rect x="216.58" y="143.49" width="5.8" height="16.77" style="opacity:0.2;isolation:isolate"></rect><rect x="225.58" y="143.49" width="5.8" height="16.77" style="opacity:0.2;isolation:isolate"></rect><rect x="234.57" y="143.49" width="5.8" height="16.77" style="opacity:0.2;isolation:isolate"></rect><path d="M246.64,147.46H244v-5.58a1.83,1.83,0,0,0-1.83-1.83H196.77a1.83,1.83,0,0,0-1.83,1.83v20a1.83,1.83,0,0,0,1.83,1.83H242.2a1.83,1.83,0,0,0,1.83-1.83v-5.58h2.61a.9.9,0,0,0,.91-.9v-7A.91.91,0,0,0,246.64,147.46Zm-3.53,14.41a.91.91,0,0,1-.91.91H196.77a.91.91,0,0,1-.91-.91v-20a.91.91,0,0,1,.91-.91H242.2a.91.91,0,0,1,.91.91Z" style="fill:#407BFF"></path></g></svg>